<mxfile host="Electron" agent="Mozilla/5.0 (Windows NT 10.0; Win64; x64) AppleWebKit/537.36 (KHTML, like Gecko) draw.io/28.0.6 Chrome/138.0.7204.100 Electron/37.2.3 Safari/537.36" version="28.0.6">
  <diagram name="Page-1" id="Fc7U0pPD9r9OIFH3dabT">
    <mxGraphModel dx="1426" dy="849" grid="1" gridSize="10" guides="1" tooltips="1" connect="1" arrows="1" fold="1" page="1" pageScale="1" pageWidth="1100" pageHeight="850" math="0" shadow="0">
      <root>
        <mxCell id="0" />
        <mxCell id="1" parent="0" />
        <mxCell id="JGCPPYY_YPL1akn_zZar-1" value="" style="shape=image;verticalLabelPosition=bottom;labelBackgroundColor=default;verticalAlign=top;aspect=fixed;imageAspect=0;image=data:image/png,iVBORw0KGgoAAAANSUhEUgAAAWwAAAQJCAYAAADinjL3AAAAAXNSR0IArs4c6QAAAARnQU1BAACxjwv8YQUAAAAJcEhZcwAADsMAAA7DAcdvqGQAAKkeSURBVHhe7f0LgBxVmfePPxMSSLiGa0SUcOlOGKBdN8K6M6gRMWoPszrRpXF1HbOrzrisL868/OIqMK4vo3jJuztDVuGdcfkbs6/6OijM7g4zSAQEZUYF46WBIekhEBEwXCThlpDb/M9z6pzqU9VV3dX3qunvJxym6tSpU6cu/a2nnqrznKZZAQEAAAg989RfAAAAIQeCDQAAEcHhEpm88z9py48Had4LM2KukKekiQ4eHaPl7+yh1ne8T+UBAACoFrZgs1g33b2GWk7ZKRcEZeqJxTS7cgNEGwAAqoztEnl400BwsT7sOKK224lOXkl/+dqd9ODt16kFAAAAqoUt2PNe3Eb7ZufTwSNPJ1p1M9HKbxEtOFotNVh4IlH7XUSveQvNHrKQdh04hg6++LhaCAAAoFrYgr3n4KH0/P7jaO95/5v2/WmrWLKA6Ox/UEsVC08SYn0n0TFxmr19Ne167Oe0d/Yw8v8ycIK6m5qoyU4X0HXsHi+WmevoglLXDQy31WsbRn5N2uHGr12CstqTp16J+9w10QWl7njVjltuG7sn1KK6UOiYejNz3QXU5Gj4DF13gbFfF1wncvIw0a3W99p+aW0qmrxtYGrUjmph75+FPGfGdec8f5Vhott9PU8YFjbN0sJ5u6np1efowOJz5AtFOrZZLRUsWkL0V0Ksjz6TZu/8EL206zkp1oVppcHMrBT1zCBRz0cLXHxexD5N987eS58WTSqeCl4oZbWjClS9PdlzNzs7Tuf2xEu7MKvaTrONszSUVNlRQdzMPjqSooxuuLy5xemhq7P7NPttolt9D7sQ9y8+QINr67njYWiDSaVvDs79Y7GO95xL4/r8iDRObRUX7WRHFw2PGnXObM0K9mHzXqWjD3mRmn7xGdr35BQdeGqK6MxLic76hBBrZVkfdYYUazr7H+nw944RzV/E34rQgqZ9qpb8xD59NXVNjtCtUb3LNjRJGhJ33NbhUfFzAJVi5tYRotTFZN3LhDB8tIfOHXfdeMQN79N+WjhzK42ce3V9jYgwtKGamPvHN1gp1kPiF5ElOZShwQe+WNkniPjZ1PrAVtvA5WvFFuwDs4eINI/27D1Au3/377R36iqi295LtHML0cV3CLE+3RZrOvlt9OLdn6Gm/S/T4vk7aX7TAVVLMVh3we5ufrTotkRAWhfZx4zsDct1x3SUU+tKnI+S3RO8XhsN0yT1xEUeV8iPNoUeMX0J0o7c/eJHG92m7F3YY/9z2i8zLTLZbWVdE672+Kzvvf0SiF1MqdZhsm/6nvvv1Qb/43bBddcZy1S568Q5spfbOxcQa/v2eq7zne9cXDeRbRcvMh97c465Uda3jb7XqWaGLL1WSsfCMNlFHX7i7HHt8o/4XN8V3PhcX4GuY/9rs7g2WFTvPHC+6zfPOPbRbL+qJ88159i/zEM02dXhEGuLGC07d5JGpDWq6rSrcc97HUuPPP69kTZwrWvFFuy9swvouf0n0J7ZRXJ+98FFdPDZXxNdsN52g2ix3nV7Nx1y+Il01II99OKBo6TYB2Hmui/ScGuK9PVJ4qA+cPa3xSMF363ETsUt60I+Zghr7oE2cyc1XG6EUvoxeJzoi7IQ73CcRlIZ+zFlKCmsQlGgSz82F3xeVidZHTQr8cn3wq8djLlffPdVZbgtw+Zd2Czn1X5VjNv1RaJvy+100WTPOrF1N/7r+2+/HHz2f2Id9Zw7ntOGLM7z/G1xQTqPr9jXhzpUnX77amKeMxaWGH36Xnbf8HpiW21E4/d+Wlmw+c+FeYyH25roo6J13u0wylp+viKuU5MMPTR5Li0zLdPWsymuJgszQeuEtRdYKz3PTcDr2Pe8erXBPCc6OX9H1TsPXr955zWXqy2iHt9rzrl/M1sfsCY8iJ/dqqby4fM79Ty+1k3goQxPi2tFyLct2GwlL2zaLRO7OWYPPZYOtAnL+pjlOWJ92KkX0pEr19Grr/8A7RdCz2LvT/bkSb+P8eNh/2PWuthKD4jDbJ948Rh4dZdurIEsZ1wQbeJeyoWUdXJ1oeey5BDNOtpg4vSHWolPvgd+7ZAY+8WwZeRx0Tr3P1/7Rbu+rdqc7BDteYC2un/7+db33b6ioCVo0kpns6L47T8/xg235bE6xXqtg6TdndJNZk0qxL7qhea++rbRPGf6MVX8aIXwtIn9pXGdp8hzLpzH2Dg3OcfcKFvsdVqIyYfET9MH97U7MUoPDK517l8+vM5N0OvY77x6tsE8Jzq5fke1Og+M3Md82iLq8brmGNf+xZadq6ZKxO936nN8bT+2aMfwucuygs1+6KPnvygTuzmO+LOPE+3bTQdu/wDtO/Y82jfvKNr1oy465NAj6NDjYvTSvZ+nV7dZP5sm+X8/zJPn+vGUTJfD4V/Ycq4WAdrBQsO6IctkaDDITbiSBNm+uIDvtfcjzzmSF5tpEXrsv6rr28Iu4h9k9tGzTIK2MR9VORcz5G90FXmdul1OeRGW2hcfcBoGwjbPMfKkWKlz5ntuArTTc12vNgSg5uehVDz2Twqr13scl3urWPzODW/vga00IXauS9xxbMG2aZpPC876CB2667d04L9W0ouP3Us7f7medt7yXtr36K20IPPv9PzN76Xdv7Xui9Iqn7dHTpdFbJm4rJz+0S8Oe/jzVLmcx0t1sec+drrw8AOWhF873LDPSz/mSsGTubkEbb8ffusH3X5B9GOlEssC+x/79L2UEb/EB9yPArzeZA+tU+dZusmsyQqiXCH8fN9mWOMVOxbaVylQFlPg69QBC6xpMcbo01dbbgDHjU78Fq7jefPa5e3mvOizHqHNL7Em1vXk+Fwd5ybodaxwrOvZhgDU8jwwah8Laosbr/0Twnp11zC1OTTEcnP02GX5vBoWPFvHarLQ7zznd8PlqYfaekg+2RqCrexk/vZ6/hE0/6QVtO9176P5K/6JDjuznRYsPp2Oafks7T/70zTvpPPoqHdcR0e+5mw66pAXs+uWhfUVwgPiYpWPStKv5mVJWeXEM5xVjpO8urXvMptvXfRJ6hCPP/KRz/ErKBe/drhIrqVBccDjvPyjD9G5vtaEX/uD4rN+4O17YTwqN32RzhZPSlnjy2f/7UddywWW66Jhd4UlSlzmo+Jy9HQ5BcZsI78wmhA/njb1GJuktYMPZH9cZR0Lk1Y69yHLEmoyb2IOglwfMbo4RVnRYdjtYf4OZFuJLnZtwO9Fn/xaQe+jSG0PDGY/GfQ8NwGvY491S3nZKKn6eXD/5q19LKwtTvyP8SxlUiP2MW5qEmI9abhV+Leobrxy+Sg/w2h8fqe+vxu+RsQB0u/+xCOQ5MbPruQnzdnZqf9v9uA93bMHnrh7duf438/u3jo6++LUtbN7b3n77CvT35/d8Y2TZ5/9j7+c3bvle7Ovbvro7HPfOHb23/9JrFtVxme7qEv8H8w5MoOzrZE6t3wtts4OZtRsufD+tw7OFledaEPR61SaerehwuchhyL3T17HHDGvmm2anbUt7LNW9VqBnB66gfYsitGru56gvY/fRfv/8BNadCjRCzv/JL/PXvSGT8hvtmdffopeevb3dN8TR1Hzu3pVLVWCHymKensOooJ8ZG/kcysesb/N1pqXVeuLsBh9X5zXijC0oZoUuX/KBz1b5Y51OeFVpzetp/0v/F6+fGD4ZeRBsr7RZtj5cdi8PfTq7CJqOup0Ovdd/1i9SH38ckI86kzKF5ch6mEIykD5+2y/Jb/wKvx4Gh4mqFu6h3A91pfGPA8YIgwAACJC7lciAAAAQgkEGwAAIgIEGwAAIgIEGwAAIgIEGwAAIgIEGwAAIgIEGwAAIgIEGwAAIkJ5gj0zSK2tg0bUqjoRlnYAEGai+DvBb9tBfsHmg6UiSGVTN03U6iB6br+VBv02bLarkm3MaUehIP8e+LWt1HZWcv+KwXEsSjgOQank/jnaXIHzVwwV248ZGmw19yGbWn1/EDXGdZxluyp5Hv0wt1GL7XmRs10+X0Kr7qhsewpb2C0DlJFBTXQaomSshyYne2oT+CVn+5PU47fharbLbAeHWS72JPi1rdQ21/IcmPB2MwPUIo9HhGKAVOv81YwY9Uyq9tvH35qf9P1B1BKOl24MNSYOcmI6U/vjVrffRbscf3FMX1QzY2IuRe0XVbY9pblEvO5inGffXfNYwZXC3F68l6Z0nmyXuLt1irypXhmztuIWCA8jNDVtDeXk2O+s5TYz2KryROI2+bXt6quyx9KrLrXeoDFoqQzspuvzW8446hNJb6eS5Nl+zjGwMnOvE0cdvN81On852xU42qfydKzifPsg4YBEOp+PQ5X3g/FqL+OXr/A8N2WToOW2MiVpiONwq2NsXafd1K2eEuSxsadFcV3OWjl3XuBos33cK/R7KpsYtXNsc63YmWmiVDvFzP1wtMd57WeX63PFxyf3vBUWbHUg9M55nXzr7jpNfeqOP5sR95pO58EuGff25c7x9nopYQ+qKSwOVdxCWCMbs1ZIpS2QmcF+Gm5pprirHZmBNLXx2RcHvrM3YQ+7NJ5Q4i5xtW3NiSrfpy5GHIPpDrWvHPy/33VsPZcXOkYVxGv7nscgz3Vi18FWe63On8CxXZ9zIAcV0MfPbx/4ByaHubHyRRpKVnc//K8Zv3xF3uuzVHjQgGFq49+ouS2TqTQ1bxTblANYdBLpaff17EOsZ9I+trPjCeqVwxZV4fdUIrHlCZripwrBxOgwJbJ3L4HPdRNbTgll/M2MjVCii9TIOBmaJnWNGpTmElGLbGa2UJrUyeIkDtSUtkDLxb19frzg7Yl8e4CHWiBOsr5xxEdSlPFoR0zcYlt4vDc+CfJ4WDe35FAA14FfXTxj7mu8OVd4vZbX8hh5bd/rGOS7TqrdVq/zx/nmdvOdA43fPshH4Bodb41fewvtRynXZwDskdA7Rq1j4xbulhS180Hna8SclgsDIC1QddzbhonSW/yFNt8xMM95MdsvBD+5yW3M0Ja0awgyv+tG3ujStEXsSGY6QR1rmynNis3lE8uta9SgNJeIF+IgFBT2KGPuX0GflHgclGU7aFSeIK+nkiojHsmkm6hu+ByDel0nRZ2/AkT+Wq/y9clPJLPjSrwqBIu16SOv5hNjySjxnRA374RzHE2Jz3Uj7hk0nZmg0bSwqNkXnhbHTfx+Ex7Dk1VGsKVZ32sPrFp15PayDn5+lPAUp0pZ+X649lu2gwc8FRdXt3RQ8Q8jQwMt4iRut8rYuNvmV5c1WzzST2u8BKk1XseAirxOqn3+3AQ5B37Xunzp5LNv1doPv/YW2g+vc1PudcKC6nC7sIWb+0ifF+M4yTaraRttlQtyllf79xSQZEeCett6c8XW77oRsPVP/f2UZp+3+Mezo6NEzR4Hr0IWtjjx4o6XNgcO1Y70chE76fShs7NebI99WGrw1U7xKJFzt431UJ/yqVXvsyfnfsfZL8gvWsTJEY1T7Y3TSGoj9SxVqzBm2zY8ozJ96ioZ5zGyX8yWi7R0+HGOz0sey8zrGMSKuE5qcv7cBDkHfvtg+VLNfKlfVd0Pv/YW2A/Pc6OWlYq0DNtUnSKxNbyxiCcZcZw2sp9ZrZ/zm+bjmMhqgWN5TX5PAWFDSfzLNY79rhsBnw/x40ypuxHPDgtrW9+cTDDiTKPAXzqMdtBsLS7auQgfv/7mrO8bgDpQOR82CB0TxqdLTfwBA8S6BCasT/Xa0jRQjMUIQBWAhQ0AABEBFjYAAESEphdeeAEWNgAARAC4RAAAkttvv53e9a53qTkQRpp27twJwQYA0C9+8Qsp2Lt27VI5IGzAhw0AABHBIdiHH364TAAAAD0IHzkW9lNPPUU///nP1RwAoJGBHoSLHB+2Pjl/+Zd/Kf9WgoOzB+kbP/0G3fibG+mFhS/Q4hMX06t7XqUXHn+BTll0Cn125Wep4w0dqnRlmavb3r9/vwwgUwrckWb+/PlqLhpMTU3Rr3+1WU4fefRieuP5LdQ0e0DOB+UgNdGmsVuk1TjvkHn03ve9j1772teqpZXh7vXr6bc33kiLXnyRTlgszvfevfT4Cy/QolNOobf90z/RGzpKv9YOHDhAu3fvVnPBWLRoER1yyCFqLj9ePuxS9WDevHl2kKOgcDt5H+cChx12mPydmezZs0dNlU7ZLx0ffPBBeXJy4N5h4s/eA3tp4FcD9KOXf0Sr3rWK/vqUv6aF4h/vzI59O+hbD3yLtv98O/3j8n+knmSPtW5AGnXbfOIfe+wxOvqYY+S2JGq7Nu55g+eff55OO+00WrhwocopzJNPPEH33Xe/2OcmOlRcjCed/Ho6yDcNtVxui7cpJngf5V/Otf6T0/Pmz6M//H477X31VVmmpbWVjj/+eF6zIDeNjNB3v/tdOrv5bHrDijdR2/su9T7+PnAb9h/cT1/4zKeliDF/86G/oXMTCTldiELn+4AQ5l/9y7/Qy/ylxXveQ6d84P10yBGHk7hn094//pGe+ta3aOaguGWIm8R7Pv1pa90i+fWvfy3bvmDBApWTn3379tGzzz5Lb3nLW1ROfir50vE///M/6YwzzqBEwOP729/+lh555BF6//vfr3KCw8bHr371KzUnUOckCAfFOXnuuefooosuUjnF89JLL9nHTN+gXnnlFTriiCNk2/gm9IK4afM8X/cM/+X5xeKmXgwOwdb+Kt5YULh9e17dIxvAF7T1Y82ma350DX3r8f8fta5qpdbFrVJs3nfs++jxlx6ndFNarvO933+Pntz0JH3v/d+j1tNbVc2FadRtv/zyy/SEENDlZ51lbd/YLiP/8rycU/MG6XSaTj75ZHnBBOX2H/2I7rrzLnriySfobSsvpFTnJ+jIhYeppQLepPHXapO1baHxYn+b6MVXXqXhrw/SHx7/PZektovb6K1ve5uc9mPy3ntp8+bNlNmaodcvPYPe9s530zyhgvMPYdGyL938CGv61tGb6aijjqA/bH+MDhf7zWJWjGAXOt8/+ud/pic2bKB3vvUtdPw73iJadoBm94v19lqt5GOy4zvfoTEh3h/43vfotJbig4PeK45FW1ubmgvGf//3f9PbChxjjVuwS9EDzTPPPCOP8avi5nz66aerXG/Y7cI3IRY1Fvli4XVffOlleY3lnBsu4Jo24fw777iDVq5cqXKKY3h4mB544AE69NBD5c00mUzSSSedRA8//LC43o6S+SzYfDz45sXH8gc/+IF8UuJjw094n/3sZ1VthckxGYr1WTWpgyST2Hn7r0i/f/739P/S36OD5x6kxQsW00MvP0S/e+Z3dOpRp9KieYvowV0P0vTL07Ts2GX0wjkv0OXfv1zVGoxG2/Y+8bT4yDMHaeZpccfefdDennmBcjvkX9e8OxULWw584e3du09YjSyYTfT0zhdph0j89+nnxTSnP1l/n3r+BXpKTD/1pxfoiedeoD88u4t1U9RzUNbD6SCrYAH4xvRj8YM68sgj6eRTTqH4smaKLT+HTostE2l5wXR6XKQz4/TsM0/RjqeepAXiBxTURWCS73w///vf04PiCeBccViPfuPr6MQP/y0dcc6p9MrDD9HunQ/SERetpIVvfSsdvmwZnSPEcOTy4q41ExbBoHDZUvbVpFQf9oknnkjT09N07LHH5nXjyOtAXE9btmwpKOz5OERcXOa1byd9zlzpEJV4uhzuuece8ZvYKw0g3uff/e53cr/598I3IH7C4SdatrQ5n40lLqddcVy+GBytZfXnSotBHiC1402cxLz8K9I9M3fTziN30r7D99HPn/w5/ebJ39ADjz8gH01ffOVF+u0Tv5V5m5/eTE0nNdFz85+jJ3c9qWouTKNt++4te+kH9++hHz20V5QXj9e8TY8k2+SRrxOj/waFL0D+Yb1OiCb75ucLATv95MV0hkj6r0yvPVb8PZbOlGmx/BsTeae/ZrFYjx9BrXo4SbM1AOc0n62mLGt1z979RtqXN73Kd7kKwMfL73w/cvfddJQQ4iMP3UvPb7+LntuWpuPe3Un7LzyHjlr9ETqx5a306NQd9NKDv6WTxHqHiB/xrieDX2sme/bslTfNQnAZLlsOpeiBCbu7jj76aOm+8yOTyUj3HFPsNWnD58J1fvS0V9JCraeffvppKZxm+q//+i9VeX74pnjBBRdQb28vfepTn6LXv/71Uoz90ute9zq6XNyw/+f//J/0gQ98oKgbMJNze+GXC8W8YJAXrj5grpR5LkN7Fu+hPX/cQ18+6ct0w7Ib6Fut36ITFp1AK09fScOJYZn34X0fpoN7D9Krh79Kv3si+B2n0ba9b/8sLVl8CC09YT4duVBsy7jwOOn2MOY0o+c5bfnjfvr6HS/T+k2vUPoP4rk9AFqwObGFfYiwsA+dP89OC0Saz0lcUULLeQ1pQe8TFhQL66t7D9D+A2J9TrqegIKt4Wr5+B5zxEIjLXLNO9NRiw61Vi4T8/i5z/ezQtSOeXU3HbJoDx2+N0P7bumg7T/7AZ37kavolAva6Mdf6aUj7/kiHTJ/OzWJ/T5cPAo/UaRlxfzyl7+UIrp7t7i29rwqXzzzDVDD05zHy7gMl+V1yqFYPTA555xzpG/67LPPpj/+8Y8qNwtbnuwCeeihh+jP/uzPVG7xyOtCXf/ynPC08buQSeW7E6+zZMkSeuOf/7kjBbX2eX3zKYbnH330UXmT0mn79u0y/V48ibG7icvItqo2FIOjdCnfXdob5798AIw0e4S4mI7iQlbZQhw8XPyQDxWWV0Aacduv7jtIu4XIC92z2+CVGL/5wxYQnSSE/7DDmujxPwWzQFkMtCtjv0h79x+gmSeed6RH+O+T4q9K2556nh59aic99sdd9NgO8cQh1tl/0KrDehQuTrAZXoO3HTTt4wNVAfSx8zrfi4QIH82bYYNW/N350qzIl6tJ5h86S4teO0uHnmzNLxTlDxOpWFiAX3rpZTu9/PJu6W5gcbbSbplnluF1SqUUPTBh3zK7BNgdwDdnvploeJ4Fm11dLHD8txzkuVHnQ4qzcZ60MMrE+R6Jl2k3CadS4HrYh/3Xf/3Xnokt6tWrVzu2Wyw5LSvahy2SfXDEX32wOLWc0UILxD86huiDMx+kt//y7fT2H72d/vjyH+m2mdvo7T8T8yLvK3u+Ius67IjD6HXHv05OB6ERt20JthA8l2Az5l/3tJ5neF0W/VeFxR4Uh4XNlrMQw+OPXijSIpUW0nFq/jhORy2iY2VaaKUjF8p1dB2lWNgSsc7uV/e50n6PPCuxdV8J8p3vuHgkPihE6aU/ET3z7Hw67oPfo1Nb/5q23ryWnv7ND+jt/3OQFrf9D5oV2veqqOeoheJYiUfjYmFB3rXrBXrxxRdFekn+feEFZzKXcdl8/uMglPsd9hvf+EaamZmhM888U/7VbNu2TVreO3bsoFis/Cjj8tyo82GLtJqXSZ03r8SYbhJOYoHMD4qux6xTT3N79oinKk6794ino1ctt9abxZPLtzdulEaIKOhIfp/dOgS7JJ+VahA3TB803chVp73L+oSKb/K8JW4Df1HF+8PT/LTKf7nFe4he85rX0LnHnitmAtKA22aR3SMtbGHFqW0yXn/d0zrxulKwhfgHxRRstoz37ecbhxBKceFZyfIps3hm/cvOxNZuuYLNx3qxh+vDzzVSKZeIOHC+5/vUd79bnu+XhIXddOxiOiF2Lj18Yy/tu+1/0x8H/4ae2/wD2v+aC+j5R+Xpluf72HMLn29+QXXbbbfRT3/6U/nZGh8zFuGdO3fJxNNuwXYv53V4Xa6D6+I6g1KSHrjQLx/5iwgWZraqud4TTjhBPmVx20r5MsQNnwd5Xsy/6nxxkmXUtDuZQq2TtUYwuA791z3Nia9z7cZin/X+/SIdsPpR6G/P3YmfOrxwCDZTrM/KcfFy0jstpg87cCj9zSl/QwuOFtYm3+hZwIRG/Pypn9PDzz9smRuct896/LoifoVoUE6TfGnEbZsuEQ1vX//1SgxfHDqxYO8R9RQn2NmvO7RL5InnXnSmZ1+kJ9X0k8+9RE9x+tNL9EdOz78k1rGEWtfDdRYLt3/vPrH9gImt+kqQ73zPCov5tZdeSkcuWEC/v+VZ2rRyBT21cZBefJbogW/vpx+9+W/ovpV/S/OF9vH5PvXkk+X32oX4wx/+QPyNL1vJ/EPnLykmJyfl530//ek99JOf/ITuuutOuvNOK/E05/EyLsOdjXgdXpfr4Lq4zmIox4etecMb3mC7PViw2ZfLNy32a/NLuHIxz4s8T+q8mPmc3GXzpaDw9ciY67mnGb5W5s8/RAq0ZxLLzXk/HCrBFxOnYuFG6QNkHii2OgbfOEitR7TSojOEiclWpRCpD/7kg/SVh75iiZnQtMPPOpwubbqUUq9JyfqKodG2/fKeg/TCbvbNelvYjDnNAsm+Q078w+XEQv3CKwdkXUGZFSLPdWnBZQv78EMXONNhC2jRYfPF9Hz5d6H4q9NhC+ZL8Twg2q3r0Rd7MfAqryirnv860/6cxJZ/peDj6ne+V/zbv9HRQtjOFOK9e2Y3PXKPEOtbrPvyK+LYv0GkY8Rvq0kI+6m33EJHvOc9VqV5YEuU6+bfJH/Pyy/Hbr/9Vvqv/7qZfvjDERoZ+R5973vfoe9+9z9k4mnO42Vc5kc/GpPr8LpcB9dVjIukVD1ww19H8JcX/Pkbu0G4DTzN39cvX75clSoPeS6E6JnnRufrv37Ja3mxuOsxp/kff3ZoCjILuC3SLrHm5EdOxxn2WfEjTNC7KnfBZItLHiSxYfNC1g3fPbubPrnlkzR+3Djt3yl+SLtfoab9TXToiYfS4v2Lae2ra+mC3RcUffIaaduf+X9P0JPP76cdu/YKsdtPxx8+S6898Ri5zNqagcwQ/xPqpkXRFMennn2Bntst2jxvPp0kngJOOW4Bfe2Dp6il3txy8y1069iYnD7u+BPpwvbV9PKLL8l5J9nt6E3yH94+d9S5/b9G6JUXX5T5l6QuoXcXEC7u4fibX/9GTp/zhj+ni1en6DDjgs5uTZObs1ecpy98tocOX2SJD/fw5I5MxXScCXK+Z4XAbunupuNuu42eZ6tWzO8TZU8SgnnwmGNoz9q1tPstbwl0vg+IR+aXXn6JFi1kX5oF97bM3bv8cMv4aw3N7j276cgjjvIUBa+OM8XqgR9sYfM22S3CX4Vw5y++JtjHXS58brguv/NiTjPmNDMxMSH324T99ucGcFtdKm7AHR0d9KEPfSjvNl8S+yufyHTi5UZ7xf/Uz1b8X+wL9/rkTwTdlB1LhA/WAWEteV3IjPl365+20k1P3UTb9myjQ2cPpTeLfx2xDvlx/X333VeSaDbKti/b+Ee6pPVkepV7z4kTOn+eSOIRKy8+v27+1O7gQW5fE3EVv350J619tyX+ftz8wx/S2H/9t5qrDClxsb+nLf/AwKZgz19wKJ2deAPt3cM+peAsOGwh3Tf1U7srfqmCHfR8/2nrVtrX20tPnHQSzQqxpje/md4ojt/88fHA55t9nAfFeVqkbjLMv/7rv8pedcXAosPf/Gp2C6PBsuL4sc9JJWOJuOHj/bOf/Ux+LsfHiAWJv1+uhAUvBVv8tYVQJcY97X6647wf//jHnoJt3uj88BJsnRjrbxO9/MrL9otNef3otvI8/7XLWvD36V7uorJjiRwmLn6+sGRDxAb1X8bvL2NOM/y9aNGi2UDbvuw/nqHXLzlB9nDkC+6wQ2bp8IX+L9S4cwtfxdbJtSb0iZYvAA/O48bQEYfOox3PPUff+MiJaqk3P/zBD+i//zNYZ4KgXPrBD1Ly4vxdrU3B5h+Z/qEVC58fTUmCXePzvW/fXjr00MMc8V7++Z//mX7zG+tYMNwphd0dJuxq4B52GrZg/9f/+l9qjoWT3RH75Cd3bioZS8SEr9f+/n76p3/6J7r//vulW4S7b3OX7L6+Pim45aDX1+fEnRj+y648dsewq4mPE8Nxce775X3U5jIc2P8fRLBTqZT8VO/DH/5wzvY4cZv4mn1FbJenza9RzBu/XkfD7x68BLtsH7ZumE4aPe33l0+ifvnE06XAdZmJ4bulnjb/btq0yZ6v1rYZPe33t9RtH7OI/cKH0uEiHbHoMGF5iWkh2F5p0cIF4q8us8DyIR96CC08bIH94uOIRQvpCC4jyh8t6i4EX3Tc3kqmYsWXj6G+2ItN5cLbNpNGT/v95f0s6Vprmie/oLj77rvttGzZMvktr05vFpY7uxjMxHlmGV7HrONXHPHQaH8+StEDL9ha5Xco/NKR3WLsZuFjcdxxx0l3RCXg420mE57n48+fOnJMDw53wB1ZuFPL5t/8ls46a3ne9fPhFV7BXRcnr2vStrjVcrO8H2X7sPlFBh98c6OMuWHzLx84Pnl8h9MXcJN4PHv4oQeLtnLd2+aT8OUvf5ne/e53S3fD29/+dpnHb8b/7//9v/TOd75T3g0rsW220PjmwBYO+5qam5vlxchv8fmOzxeHOLbykZTv1u973/vk8lK3ve62l+i440+gl/dYP/zD5gsL2++TNXFG+ULif3JalJ8vRPrVffvolT37hRYI60qdk4UL5tGLu/5Ea9+Tv+PCTd8fodFbblFzFr3/3xXyR6dxC7Ce/3/f+x7decedcvpPf/oTnSMsLOZvPvwhav+rv5LTfpgWtubFl1+S3Z65fnObel6mg7PyUzbdWeO0pUvt3mulWNi1vs5feWW3+D0GD40ahHT6d+I65Zd+e2Tdbqrhw+b95ycDPh78AvSKK66Q+f/n//wf+dvk/KuuuoqOOSa/Sy4f/HvjY+4WPU4atqy5Ew9brqwD/I7g58Kyfu1rXiOvCz5H9nkS6/3iF78Uv93CFvYHuFOMuDGaFrZO3B5OfIXy9qVAsztK5etyjP6refChh+jUaviw9YXsPliMe5ovYG44i5n1PabYifnz6eVX99LrX3OSFNlicG+bv4C49tprpc+Oo2VxevLJJ2U/fxbyf/iHf5DlKrHtG2+8kdrb2+U2+a7Nj6Es2izYvM1Vq1bJbrl8MfEFwW3hXlClbnvo7t10zLGLac9+yw+3kAX78NzHWoY1zBIu/isuQjHBn/K9/Mo+okMWiGPAFief9iY6pGmWdr+4i7pX5v6ATVh0b/7BD9WcxdrP/pMU4O0qVgTv5ymuxzhu649uu41+ctddcn7H00/TaaculdN/2/kRGZM6H27B5vPH6wVh0+2bKLN1qzwWW2cydN6KN8n8cgS7lOv85Zdfkf5vPt+xpa8PdL75m112X2jXBYsNW8jcBseNSSXG3R5O3AGDo/Xxd8+PPfYonXLK6+X+LzQjLSoq6cPmF6R8jNlXzV+DcGjYb3zjG/IpgOGXjhxKlQ0afvTn7fK32n/+539u70dQ2F1l+q7diW8KvE8cM4St6osuegf98r776Lhjj5NPIHxT4fbomysfswcfmqbz3rRCbcEfNgAvueQS+shHPmJvj+HrRCc+P3wsbLEWf92uED2tYe3QBoZJzrMin5hiT47cmGuDZgN4mg8aN/qZZ56lB4SV8fvHH5c+ulfESTr+mKOKFkyNuW22dvkC5xizvA/8gqe1tVVeoHzgXhU/mEptm+/S3/nOd2hCiNFf/MVfyG2xxa3DX7Kfjj9n4oPOkbw45m452z768PliP+bRUUc00TFHcppHxxxxCC12Jc475ghrmfV3Hh2xkGh+0wE6+ujDxHqH0NGijqNFPv9duFBMi7oLwRcyC5GZ+EJ88IEHaPTmW2Sann7YLssXP/sK+dtfPu8H+JM+kdjy1etzuWLh883r/e63v6OJW8dlevKJJ2WeO+krkNdZMN/75lYM5rWmkXkKnjav8/QDD1Jm5hHRlll6Ze+r9NqTTgh8vrmeZ5/9kxQaTvxZ3PfETfNzn/ucTFdeeaW0TK+++mrpB+bE05w4n5dz4hjivK5VjxU97uDB4N+mF6sHfE1cc8018ol2RNxs2aJlkWRR1mLN8NMmx+nm3o98jWzYsIFuuukm6dfma6cYnGfEGz6ebFwdeeQRdMddPxFifax80uFzxb9NNrL4+3D+mmXmkUfFDZc/yCwMX2f6hqnR1wT/Naftm4rMsdBlOHFd3E5O7jo1ZfuwNdwI3qiJOc+NYIuDD8rrXvs6eudFFwmLQ1iN4sSdIoStHMxt847yBcI+a7aA+S9bv3yy+IVHpbbNF9nHPvYxeknsE1tTfEGyC4Qf1XVb9EngsvxjKWfbxyxin5ew9A4TInvYPDpU6M+CQ9jVkZsWHDIrBGqWDhWJLegDwspeeDj7tufJdc3EMYS57kJw0Kb94hiaiY+1zFcCzC/KtEibiX8UtkiL60CvX1IsEXUhP71jh/xxceLrqlgSb3iDmioO81rT+F3nJ5/8Grq4LUn7hECeJKy5Yq817ljCYsKJ4WvsrW99G42O3koTE7cLA4E7zvxUWN73ysTTnMfLuAyX1S+uuA6Oz/zUUzvEnLP9fhSrB3xuBgcH5c2BhZi3qf/yTcRNT0+PFGcWdT5mW8XTEFvZn//85+VxDEqQq4gNtvnipv37J5+ic8STMLuGeBusDbxd7tzDhhe7N5/645P01oCDPvDv2wvzmuBpO4l2OOZV4uPAx4BvqNu2PUonneT9EUDOL5V9VvoxKBBiYya8cROe551iweTusuw+OO744+h+8YjEnS1OPTXXTxMYj211dnZKnxsLJ1u77Abhg/Dud79H5ldq28cIK57f+PMnPex/Y/8cW93MxRdfLK19ftw79dRTpTCdcsopZW37qIWH0D7dB0Rcodz55fmXXs1JOzm9/CrtEn9fEH9f2Ssu/HnCgpbHynm8GK6T6y4EW2X7WJSNxBf8Pu5mK6Y5sTC7xZoTD4umy7BrgNd9+zveIaP+1YvHhaAWhce1ZuK+zvl3dPxxx9MvfnU/HXX4wqLPN7vS+GuO3//+CZnYrcJ1x+PLxFMb++NPo9NO479Lxd9TZbKmrWU8HYvF5Tq8rq6H5w87LHh3/WL0gN8Vcdd3Ft1/+7d/k9til9lb3/pWz+7nfANZs2aN/H2ysbN+/Xr5YpIFnt0zQTkgrid+wuXfI6/H7eWkpzn/gYemaTozQxetXClvYnxz4XaygcHuED53j4un35/+7Gf0LvU7DgJ/mx8Ivl5EMq8avmY48XFizwB/9cM36Z27OCjWUaqUE4dgc+NZ1CoNHxz+cbMlerR4FHlk+3Y6ctEicVGVH0PAzdKlS6Wv+E1vepM8GCyULKZ8MP7yggsqtu14PE5/9Vd/ZX/6wxe27gTAQs1+MHaF8CMwXwxnLltW1rY5rGrTvFl6eQ/34BPHcn8T7dk/zz8dmEe7Dxwiy3FX9ldePSCSWNeV+J0W110IdiuZ1jUnFmMWYc1+of5useZkWth8HfC6j4tjUcyjeaVgS4phK9AtuuViXueLDl9EM9sfE09SR5Z0vvlrnne8Y6W4+b9HJhZ8vuYuvPDtdMIJx4l0vPx7/PHHOpK5jMvyOryurofrDPois1g9YIHkc8y/P7Za+dyzKJrfgbvhKHbsHuH1xsbG6KMf/ahch1/UB4XX5d+cmThc64oVK6QOnH/++fSW1hbqaG+TnxMyfK70NcnW98PCyv/ZvffSewu8BHfDNws+RtwZiP32nPhbeb5xsSuKfdH8HoOvNLdYa/h64fbc89N7pG4sX+b/UvqQz372s19Q0xK+++jHqCDIlyJiY/puoRvinmeTf+euF2jvgVk6cfEx4tEj+Db8CNO2zzvvPMd2OTGV2va+3bto15+epqbdz9GCvc9XLB1Ju+jUYw7SkYfn/xb2LPEY+av7f0V/FDcmvgFx+vM3rZBR2HiYLzk+4wknyIuPBVon3v8n/vAE/fHJJ6VFzT3tuPceWxL8wu/PCvR0e1Y8kfGLK5M3/NkbZN0LRT38Mu11rztFWmZuHhWPltqd8Lyw4F4jbtwsBvxy+Lzzz6MzYzFpyQahmGvteWFhv7x3P71OiEMlrjWGrUTeBlurbAjwS0MWdf1iSyfOO1Q8wS1YcKj88bPVyzcRfqdSCP7cjc8nHyNNMXrAYsXnis8tfwHCkfjY3276rt1wm/k908033yyfSlng+Biy9c37WipcL9+YzPOjk4YtW74p7Xj2OXEDf55WXRTcstZ885vflMeLb1b8cpW/k+fE+8GJX7ay0cixU7hNvH39V7eF17938l46belpslw+cj7rY3gngsJ3Fvcd2zwoDN899grr6/kXX6LlZ55OS9Rdrlwaadt8UvmOrQWoEnB7+bM8tjqDCBcHFOq76mppKbAYnPfmv6BFhy2Ubg62ltmffUD85f024ZeCjz1qRR/7087n6cTjT5AC+N6O99E/fupTMj8f3CV+8t5JNUf04Y/8rZrKz50/vkNaesw2sf0/E/vJ+7zj6R2UbGsrasDXYs73c+IG3Rw/syLXmnazsABygKdPfvKTgT+BYzfD0NCQsKrfIZ88+ZizWPjBouP+rI8Jqgd8E/37v/97Ouuss2RPPR7Yll0eQeCgVfypH6/L1zl/UcI3plLh/WSxNM+Z+3yxO+OFl16ho484XFjkpb3T4PPD7hiNuQ09zR9B8AtObpM+/ryMrxe28NmHz75zfootRNnfYYPGgn+UDP8Q+CWJ+R22H3xhaquNf8j8mM6wRZVPQEz40z4df4JvFu4fnxfS/SJ+EPyj+vEdP6bke5I075B5UhT4RxSkjnrD7WfB5sTHji1mFl7eN94vPh78l+FjyfvEf/n88DpsHfPx5nU48bHzw0uwi9UDbi9b6nxTKXZEcHahsD+bhTrok08U4GtfnyM3fJ74dxCUsr/DBgDMDdyCzUAPwkWOYAMAGhMvwQbhItjzKAAAgLoDwQYAgIjQ9KMf/QguEQAAiADwYQMAQMjgb9i9gIUNAAB1huOYm7BgcyRBN1KwvcL4AQAAqD4cwCyoYOOlIwAARAQINgAARAQINgAARAT4sAEADcmH/9Z7qLnv/N//UFO1oXF82Ns3UCq1gbarWQAAqAd333MPrVv3v2nfvmx8eA6+te5//4sc/b5S5Ao2i6BQ9mV9d6sMi7v7RF4+cSxGPPU2jOTaHAAAVB22ps1UKtMPTdNvfvtbGhgckKLNYv0v//KvMjb25l//WpUqH28L+42X0qVbvkEbtPoKgf3GljdS3lDzS9fQyMgassbDDsAbr6RNW7fKeMVbN11JWz4B0QYAVB92hWh3iJ72c48EpavrE3TBBa3029/+jv514F+Ftf0vlH7gATkIw8f+/u9VqfLxcYmcSe9sIxq/y1Lsu//9WlquRgNntm9IGdZxyhJ2bWGrvxvYIg9qPbPYs2h/Q1noDgu8j7Kr3019dr6o95cqm7m7T+SptgAAQA3hGOSf7O6mlpa/pN/9Lk0PPvSgEPC3UNcnPh445nsQfGs6bc0/0vJr/53ultb1lfTxC9UCwdI1I5ZlzOmby+naf3cp8m+upUfeqZdfSt/XQpyPpafT8t88Qo+xKK8SN4hvWutvunILfUIq/nbakPoEkcrn1P8X1qpS4OWiEVoT2MQHADQqXq6Qcq1sHlTipRdfUnNEL764S+RVdqDpPNK/kt556ffpEyye/+hydZgW8Ce+T7TlUacgv1EI/Eo1fdqZ+V0pbrY/SluM9Zde2EZv/P6PxY3jLhono16NuDmsWvUI/ePWftFiAAAoDVO8i0X7rLUbpLW1RVra2qddKfLa6is/fqUQ20vpnaYSslivGqe2TcrS3cRlKoAU6jPpNDUbGCHu37StcAAAqC08/Ne//OuALdbsBvmHT37S9mkPXnedKlk++Z0r7Fv2slzf2EYXKpN7+13j9BtrsgyUG4QteekauZa0l0XWf+k7aeXSC6mNsvkmp60ZoW/SJygFBzYAIADmy8ZyXSHso16x4s9tseZ57dN+y1veQhcIa7tSFO8NFyL+j8uvpVXKJbL2keWlWdjsytBulWXfoDOFxd4v7wwrqV99NcLLVl27nL4pFyylNeuy+ZzMl44r+79Jy69dBdEGAOTF9F2bqRzetWqVEOguxwtGnv6HT3ZTa2uryikf9HQEAIA6gmh9AAAwB4FgAwBARMCIMwAAUGcCjziDMR0BACBcwIcNAAARp+IWNt8ZAAAAFGbJkiVqyknNXCJ+GwIAAJCFe4qXLNiVtIwh2AAAkJ+yBdtv5WKAhQ0AAIUJItj9X3HGIcFLRwAACDE3rP8qHX7IczJBsAEAIMRc0ftxuqLHShBsAACICBBsAACICBBsAAAIMS1vXqGmINgAABBqWlsg2AAAEDkg2AAAEBHq2nHmqquuUlMAgDDwpS99SU3lcvPNN6sp4Mf73/9+NVWYoB1n+q5YrXIDC/Y2un7VCtr6mZ00uMqavvI+ovOv3UybLjtDlbEoVrDzXSAAgNpR6PfIgn3eeeepOeDm/vvvr7pgB3SJPEJb71tDF68Sk5vW05Xn3EQ7d95E51y5njZZBQAAAFSB1y79SzVVgg97060b6PxlZ4qpM2nZ+Q9SZpuVDwAAoPI8uf3naiqwYK+iwZuILlm8mC7ZsIY+w24QtrRpNb3H6REBAABQJYJb2KsGaefOnSINCvlW85suI+g1AADUhoCCvYl6Fve4/NX88tGdFwGevYeuv/4eelbNFk256wMAiuOxG2n16hvpMTXbyBTtw3ZSQR82C+EXvkBfUOn6e+ooiV6iXIpQT//Q3h+ZfjitFkQM3KRArbjrc7R06dJs+txdagFgCgg2W9GLafHiS2iD+Mc+7MV2WkFXnvMZcn3VVyLT9MOvP0DnfkqL26W05Jln1LKQcMLb6LLL3kYnqNlCPHvP9fSF7xNdagj2pfSQ2FMAgBeP3bialq4h2rB9O21XaQPdTpDsLHXvOGN99ykE+wsP0dlf+AA1W4uysHX39TvpaTlzEr3jU5fR24RqsiB+/U4r184nUXaE6Nwld9Kd6YQQS66P6/4+pVXJxLveQTt+o8uovEu/QB8wN8zbFPWkTIHWeSmikZFnaImoMS03n21TlmfpHqsCV77CsU+qnbL+bL2JSz9FJ971deJdlO070blcrqnb7Vufz346ynsdO7lAled9sdrBnPSOT1GKRrLH/qR30KeKuJGB8FLf77AfoxtX9xIN3EIfO01ladglIhd9jE7j6ZXX0Ga5YAV9/m6rPIv9ymusXDufrPXaz7qGrvnuh8SN4Mt0oSpRDUL0HbZlafeYDutNPbR41fViSSVoprMTafp+jtuALe9n6EJtpX7qXHpgxHo0P+Ftl9mW6xcuXUJ33q3We/pOeuZszmexZrGRZq5d9gN8L7HL8LoJSt9V5OP+0zvoxJS1/qfeQXSnapPNsw/RA08voRM9VYz36U5aotr0qXfsoO/rfdb1cpu+z4Lvap+xXavMD0Vt+erz2k//Y+pd/gR6W+oddBILs8i/7OyHaOTOJeKQWuUuXfIMhexZCESRx+6gsc1n0RlusXZwF31u5Qxdri3wu9tprNfybZ/2sVtsq3z7hrPomiFll2++hmbexfnVFetaEVCwjY4zmlWX07V0C91WIR928weUUAhBkH9ZdJ59hnYIi1IKOSe2Cp9WAsFWos7/vjAJdzxjiY4QlpXaWmbhJGNeY5Y58URhYxbJSefS2UqMTzj7XDpJt8nkpBPpRDXpgPfJ2L5cP61cJbpebpM5zcsYY7vUfLawpXfQM1vy1eexn/mOaZDjcsKJ0sr//hf4ZsHnzeOpCIBSWBGj09WkJ49to4fpu7RG+7fZ0t48Q4/KZcKa1vlrvkv08DbrJeWKz1P3XFBqRUDB5k4yG+hW08Ledhvdct85FK/0d33NHxBCciklDNFhy06Ki0zqcd/0eQszt2jRrSYsak8/QA8VZbbXEK9jqhYVppk+INc5mx6Sfy3hBqAsTjuDzto8RncU+hRECPDd2pKWSVjO0k0yRu13q7y7P0/ZgKTRp4SejmfQZZtkz5nsS8cVt9Dqzeqb7HJhATZdIdIKFRaqFL47SXs7HBjW5rMPPaD8sS5OOJvOJZ/1K4TcduJsl+A100p2lXzdKWbTPxTzrn3yXj8A0w9Rmo/B8iLry3dM82E82fxQfsHDwv0pesdJwsoP640JRIgLqfvzRNes/JzjJeNdnzPmpahfQ9rb4WBFO12k3CmP3TGmfNxzgxJ6OjKraFB2nNFpU4W+EBGwsO74ftbiY+s5xS+yhCgI63nH91U+J/687IS30YVL7qSvq7yRZ5b4WNiW/9Vc/4db1aJCCFHT9edYkcayrz9wLn3K8cbSgn3s0p9s1/EF+j6xkDr36evsD/ZY3xOzTeyaly/7iq3P55iqpZ7w8VbvGK5/aD7fidS6X6cHzk15v1gFoEjYD3335x/OujxEWkPvMnzPF9KXhfX88Jrs8qX8ffZpH6PLz7qGVqq83pmz5pSFbRL8K5Ft19OqFVfSfXQ+XbtZiPUjPbT4a8tos6u3Y2lfiYCC8FOI/PAEX2SA6oBofeURrq9EutkFspNuWqOyKvzSEQAAQH6K+EqkCi8YQXCK7LgDAJh7BBTsVXTxGtdXIojWBwAANaWIno7ZkWYs1tBNOnKfQbE+bABAeIAPu3Rq4cOua9d0AEB0wJiOhamzYHNY1Vvp4p0X060yAJQPa26inYOWrQ3BBgCAwlThKxH+9lq7PdgFYn6HrdNNtGbDrRjbEQAAqkAJPR1N4XaTbxkAAIByKLGnI7tHjK7pi1fR9fgGGwAAakZAweYvRC4huslwhWxeTbesiOAQYQAAEFECCrZHeNUz3kOrz6/gEGEAAADyElCwaxheFQAAgCdFfIfNPmzz077yO87wJysAADCX6Pvsp9VUfiLXcUY2JuDOAQBAtXjyySfpta99Le3atUvllMb6GzZUVbADukTYusYLRgAAqCcBBXsVXX7tg04fNgAAgJoS2MJef+V9tMEcIkwmWN0AAFBNSuzpaHyDbSf0cAQAgGpSXE9HHhoMFjUAANSdAoLNQ4NdSefoHo48cHpPnSR7ZpBaWwdpRs0CAEAt6enpUVP1o4Bgu3o4rrqYqhqZz0uUqyXUuAEAAAKixbreoh3Qh11HYj00OdlDMTVbMapVLwBgTuEW6XqKdgDB3kCX2D5s7uloztfAp+2whKdpXWsTNTVxaqVBzlTLB7s5r5smZFarKpOnnFkvT7vLy2yjHljjADQcpjgPDg6qqfqJdgHB9vs6RKcafyUylabmjbM0OztLmQGi3k4lolO9NN3B+UOUFLOxnklZRqbxBPWuYxnPLWcxQd3xaerT5TMpGuF6hYh39iZoXOWPJ6Ypo9YAADQWWqxN0a4H4XeJmLSkqF35MGLtKWqZUiLaMkBrswrstJjbhonSWyxhd5djZrZQmoapTZeP99IU1xtbTgmZb1ntySFT5AEAjYJbpOsp2tES7CCwWMdHKJXRFvMAtahFvgghz2gLWyYW5yQNyekOGpVibgk3AKBx8BPneol2ZAV7ZmyEpro6vK1ewxKX5axJb9iSnuol7TWxEcLfLZ3ZLNwZGmhJ0xY4sQEANaaEno41RIhnXLsn3FatsSw+kqLMkIdcx3qoL5Et1zmdKGBhC0EWVni6TW9TJH7BKISceuMqL04jqY3Ug09KAAA1xuzpiPCqAICGZ46FVwUAAFBvINgAABARINgAABARINgAABARINgAABARHILNbybLTQAAEDX4C5Eo4BBs/sSk3AQAAKA6hN4lwl3FAQCgUQl3T0eDdDpNd999Nx08eFDl1BmOU1LtMKu12AYAIDIUN6ZjnWDL+rnnnqOnnnqK7rnnnuJFG8IHAJhjhFawOYbH2972Njr55JNLF20AAJhDhNolMm/evMqLNlveOsiTDi7ltsbNebM8x8qWBTjbNRqNXKebuu0RcZqoW0eucmzTZ0QbI99mojub71WHaqc52g4AYO4S+peOLNoXXHABHXrooVK0p6en1ZJS4NFleikxbsW9zgykqc1WVS+c5e3Y2kIoPUejMUbEmR3vouE2FlGfEW1Ecd+RcRgW4zYS25iknph/Hd6j6AAA5iKhF2y2qO+9917au3evtLSbm5vVkhLg0WWMUWfkqDXDo/6Wqau8jd9oNEYcbkp2UBelacsdPiPacBnTajZHxuEwslKgVb1+o+LwMq/2AQDmJKEWbBZrdoOwZc1ize4RtrjrT5Gj0XiNaMNi7Tcyjig/7rb+vepQiwAAjUFoBZtFqeJi7RpdxjFqjbZYBfYoNbL8CI1Js9fIF2KbMxrNdl5gMDFKw2xxX+Qzog2TZ2SceM8kjVMbtfJ2/EbFAQA0FKEVbH70P/7448sTa3YtaDeCtIKdo8vE2Q/No9bEemgjW7SqbHaUGlGefctxV77XaDRLRb65PfY/T/ZQzLVNmfglZYCRcZJD45QQ22kdjHvXocoBABqD0I84w5Y2C1ToYRdHJ9FGKdIAgCgSxhFnblj/VbvzTGgtbE0kxBoAAKpECT0dN1HP4h7xf5NtdP0qd14DE+uhSVjXAIAqUqaF/SBltqlJAAAAVaWAYLMVvZgWL76ENoh/lyzmaZ1W0JXnfIYuO0MVBQAAUFUKCPYZdNmmnbRzp08aXKXKVQ9+6QgAAKAYl8imHsO61qm6PuzQhVcFAIA6Evyl4yUP0rWb3Vb2IFXLxmbLuuzwqvy9sitWyAQHSjK+YXYGYGqyOqpozK7jepkrz0rdNOGZv4JWr3DnWcmxHQAACEARLx3PoXgN/dUsamVH6mvpoq50fzYKnhDV/nSL3UGFxTo+kjK6fOuOKrwCB1wyuo7zsmnVF9Kvm3hO/ma6ZbOa5q7nxvLJHnxPAgAojoCCvYouv/ZBurXG3/CVH161mTpSRCOqb/nEul5KpESGNUdilgY2mp/iWb0SxQrKAk/QcnuhWMa9IitITohWlQ8AAF4Edomsv/I+2nBJbX3YTLnhVeM9fcJqXiddFv3pAVrbrhbISHxGdD2NjNvBcUWS1NGlIuS5Q7A6urxzUsGf3Pn5RFi0xzNEKwAAGJQwpuMqGnT4rqvvw9awRV1eeFUlvBzXuq+4ji3JIeXO6Bi1BFgLd1CXSL6ONHxj8ArRCgAABqWN6bjtelolrepVdD13luGvRlZdT9XsN8NiXYmIfcm1HLq0izpMRXRF4rORlnczxdWsJDkkBHicuvLFzi6aZHEhWgEADU9A9dtG13ffQqs376Sb1qisVZfTtXQL3VYlxWYLtWLhVbnbeE786CQJHafeTtNtYY0wQ6l2ivFXH6YrxEvIy0HUnxOiFU5sAEAeAirgI7T1vtp/JVJ2eNUC8BBdmdSI4XeWY3JZX3DE2imVblP5IvEXI44XlB7k+LY9xmnUeIVoLcZfAwBoOAKHV93Us5huvXgnXXzrKspcvokue6SHFn9tGW3edBmZOt6w4VUBAJEnjOFV+65YrXKL8GGvGtxMy762mC7ZcB9duWIxLb6E6CaXWFcDiDUAAFgU4WdwxxWp/hciAAAAsgQUbMTDBgCAelPmmzzEwwYAgFpRQLDrHw+bXzoCAECjUkRPx/rGw0Z4VQBAo1NaT8cax8Nmy7qq4VV5eSUCLuntyGT0VpzoVnkqueORAABAkQR/6VjjeNgsclUNr1qpQXO5Hjt0qtWbUkbhk31wsnFFxqmS3doBAI1IES8da9vTkalqeFXbwp6gbnFzsAcUkBaz6qHosJ6NPLHeIFvqnvE/ZmhshGgg4+wKj+BOAIByCSjY9YmHzVQtvKqNioHNZYTYDnbyoAWT1BPjuCLT1Ket5EyKRnTckalemu7gfA8RnhmjkSkzjjYAAFSGwC6ResXDZou66uFVYz20cSBNbWZMDw72JMOfKgtbrD8l42QLWoTw5zOXKxkkCgAAFIEt7HrEw2axrlp4VRex5Qk1ZeAX9zoffmFbAQCgTIpQP+7taFrXKi52lWCBrG54VZMJ6pYvCXlMx07LVy2Ft5fWFf2mUIVtjTv92xPdiHcNACiPgArIHWg42pNhXW9eTbesqJ5LhN0Q1Q6vasEvHVmtWdCTNDSeUGJr+bbTbfqlo0henwHyS0jpLuHQqpYoy7Ct0sWSXbeNOvLcMAAAoDABw6uydX0rXexwgbCIdxMNbXL0dkR4VQBAVAljeNUb1n/V7jwT0Gw9k5adv8H5lci22+iWGgxqALEGADQyJfR05C7qNxGZX4ms2EqfQYhVAACoGUU4ht1fikCsAQCglhQU7G3Xr/IcHZ2HDFvcU4eeNAAA0KAUEOxtdNstRNcO5Q4FtmrwJlqz4daqd5zhl44AAAAKCna+0dL5RWR1BzBAeFUAAMhSQLDziXI+MS8ftqwrEV7VDurEqMBNMrQqfx/tF3pVzcuoe1xOpZy63MtceVbqlnFMcvNX0OoV7jwrObYDAACKAoJ9Bl32mXPoypwOMvxd9iX04LWXV+3FIwtXJcKrJkZUz0U3+UKvytlWio+kjK7p3AsyrsSUA0NxkChj2bSMMuLfnT0nfzPdsllN2+FZrflJGcwEAACcFHzpSKsGaefmZfQ1R7d0q9fjpiqPD1aJ8Kpr+xLU69m/PE/oVSHIYpYGNprBolRUv5ExZYGbEfnEsqHK9mN0WPdePSwBAA1HYcFmzriMNjk+6dtJVR4dzKbc8KqUHKJxaiOvAV98Q69ypL6WFLW7DV0ZX4Qj9qkIgCym7oplF/Wse8OOme3OzyfCoj2dvQl7AITxhIoSCABoOIoY07H+sEVdXnhVK1pfut9LIAOEXvUhOaTcGR2jlgBr4Q7qEsk32g3fGGRoV0vsMfgBAI1LaWM61gEW64pE7ON416kRWjem5g08Q6/6hUiVlrcr1rWw4NmH3TVcySHAkjQkhb2DRk0rHQDQ0IRWsNkKrVh4VUGsp4+ot5em1LyNZ+hVFSJVjzAj4ReNvUSpdorxVx+mK8RLyMtB1N8tX26ycGdooCVNW3z9JwCARiG0gs1uhsqGVxXiN96lpgsjQ6QKqzzrd5YBs60vOGLtlEq3qXyR+IsRxwtKD3J822qMSC+EhU+9cVXOGAUHANDQBAyvGhyEVwUARJUwhlftu2K1yo3AS0eINQAAWIResAEAAFhAsAEAICJAsAEAICKEXrD5pSMAADQqvj0d+c1kuamSILwqAKDR8e3pyJ+YlJsqBVvWVQuvqmYBACBKhNYlwp/zVTW8KgAARIxQ+7CrGl5VWeA5vQ4d+SqGh7LMB3mAA7XMK/ofAABUk9C/dKxOeFWOCzJNfTLAkkiZFI3IuCFWvJDEuJWfGUhTm15xqpemO1T58S4a9oz+BwAA1SP0gs0WdcXDq3KwJhm+VFnMQqSnOM61DOI0QGtVJKhYe4padBQ+I5/izfbINAAAUCtCLdgs1lULr+oXtxoAAEJKaAWbRbRq4VVlvOteynFtu/JnxkZoqqsDQg4ACAWhFWx2VVQvvKqYzgxQui37EtEassuZH+dhuio8ViMAAJRKaAWbSSQStHLlypLdIJPuYbh4dBidJwcuMFwinvnKTeKuy6tuAACoApEa05EtXQAAaFQiM6YjAACALBBsAACICBBsAACICAEFextdv2ox9WzKTi9evJhWXb9NLq0m/PIPAABAYMF+hLbet4YuXiUmN62nK8+5iXbuvInOuXI9SQ2vEg0bXhVRBQEAHhTtEtl06wY6f9mZYupMWnb+g5SpkpHNlnVZ4VUVM4Ot2W+tRXKEW/UDggkACCEBBXsVDd5EdMnixXTJhjX0mcvOsCxtWk3vEZPVgMW13PCqLNbxkZTRBX2cEr3xYKINAAAhI7iFvWqQdu7cKdKgkG81v+kyqpJeS7jDTOmiPUHreokGNpodXKyejDQyRjPSiu6m7tas9W0F5puhwU4OBtVLcW2Re4VclUxQt52v1vcq67bY9bxvGwwc9akwsGp9K9yr2R4AwFwmoGBvop7FPS5/Nb98dOdVHhbtksKrysh7KWp3d0eU8UKmKcPTU2lq3qisbw6Z2sbiF6OejQPUooJDTfZkfEKuCmFvbSNS+ZyGknnCs/rh2QaNXxhYgR3uFUGrAJjLVLCnY/V82Bq2qMsNr+qLKejJDuqiNG1xe0v8Qq7OjNEIGSFXmXzhWf3wasN2Ne8XBpaXmeFeAQBzliJ6OupP+C6hDeIf+7D5cz4rraArz/kMsTu7WrBYlxyxT1rSIzTmKcDNFFezoQdhYAEAigLqdwZdton91j5pUHqzqwKLU3nhVZO0doCoV7sQJJbLglLtuYGbJkZp2LR2tSXrF3I11k4pcoVozReeVdcnkPlq2oFuw1I176oPANDYBFfATT2Gda1T9XzY7AIoN7xqrGeSMqkR+fLQemln+Zwne5QqqxeLchkvMiL29XVZrojWwbh8UZkbctXydZshWrsnfMKzivo2sj9bleucTmRHrPFrg8QvDCwAoBFpEpay7Eq4Y8cOWrJkiczMhV86fo2Wbd5U0AXC9SxbtkzN5af/K9dR32c/rea8YUubhari8JcWnUQb6xkmNQxtAADY7Nq1S02VxvobNhTUNM3WrVt9NVfrqNTIK1ar3KJeOp5D8Wp+w+dDVcQaAAAiSEDBXkWXX/sg3Vrtb/hqSRgGIcBACACAIggo2Jto/ZX30YZLaufDBgAA4CSwhT3o9ZWI7vUIAACg6gT3YW+7nlZJq3oVyaiq/NXIquup2gFW+aUjAAA0KiX0dNxG13ffQqs376Sb1qisVZfTtXQL3VZFxW6I8KoqLgg+1QMAeFHCmI4cD7u2X4mwZV1WeFVH0CRORiAmM0/NOyL4FRLRnLqNoE2F1gUAgBIJ7MO+eM0G51ciEQiv6ujWPU7UxkLKX2ZkdHAn1c27pYsSI51WJLygmHWrzi1StPHlBwCgSgT2Ya8a3EzLvsbxsO+jK1cspsWXEN0U6vCqLjiwktE93Ekzre1LUG+pfcDVTSDdL24IpoXtsMSNKHxmPgd0UtnO8iqUqsw2BmGA9Q5AwxL8pWNOXJHafCFScnhVFzOD/TScL+hTcojGqS03HnVQzLCtEr9Qq858ts6tbuo+oVSFiHdyF3eVP57wu+kAAOY6wQW7xrFENGxRlxxe1YjTIUeeKeCqSK5VVrKaLwvfsKzOfBu/UKp8I5D5loWeHEK0PgAalYCCvYl6LnmQrt1sWtjVt7JZrMuK2Gf6mYP4lWM9tDE1QuvG1HwxVCJsq9lemVickzQkpztoVIq5OcABAKCRKEL9av+VSHnhVUsj1tNH1Gv4lQOh3Bx9xk3BNywr52fjdNuhVv1Cqc4MUrd0ZrNwZ2igxWOQBQBAQxBQAWsfS4TdAuWGV/WEX+xJdwO7S7ysVSGM411qOg9mWNSmfmrO8BBhapnEJ9SqrD9BvXErPxtq1VleJvlVy3JxA4mrvDiNpDaSjg4LAGgsigivyqPOuFlDN7ncIpEJrwoAAC7CGF71hvVftTvPBLaw6xVLpL5iPeEYFT2bsp/cAQBANSmhpyPDVrb5hYiKKTKnYb+x+RJQp0m4JQAANSegYPNgvNxTxrCuN6+mW1YgvCoAANSKgILNsUTW0MWm/+OM99Dq8x+kzJy3sgEAIBwEFOwzadn5rlgi226jW2oQEIpdEAAAAAILNndLv4nIHHFmxVb6TJVfOjZEeFUAAAhIES8d3V+KVFes2bKuanhVV9CQiW6RZwRWcgRcEikn/Kp7Wc72OIlteuavoNUr3HlWcmwHAAAMggu2PeKMTtV94cjiVZXwqjK/i7rS/dlP84So9qdbVAcWS6xl7BG9rlg50RtXYsq9GkcolTGWTatwTJ5dy73yN9Mtm9U0B38ylk/i8xMAgA8BBZtHnLmSzjG/EmEPSZWHCKteeNVm6kgRjaj+4RPreimREhnWHIlZGthoxh6xeiGKFZQFnqDl9kKxzNnFsWwQThUA4EVAwfb4SqQGQ4Qx1QqvGu/pE1bzOumy6E8P0Np2tUAGcUpRu9vQlbE+WPCT1NGlouq5Y7E6uqtzUm4Yd34+ERbtQThVAICmhDEdecQZ9yd8tRk2jC3q6oRXVcLrDtoUgOSQcmd0jFoCrIU7qEskX+RAvjEgnCoAQFFCT8dNdKseacb2YXNskQ10SRX92SzW1QyvyvGvW6iLOkxFdEXTs/EKn5ocEnWPUxfHuVZZ5aN7VyKcKgDASWAL2zuWiE6V/2KERbbq4VV5aC9tBdskSeg49XaabgsrfCql2inGX32YrpBKxME2EfUjnCoAwIvACrjt+lWGda1T9b4UYVdDVcKrBiDWM0mZ1Ijhd24jGldfcMTaKZVuU/ki8RcjjheUHuT4tvMEj0I4VQCAD0WEV72VLg5gSSO8KgAgqoQxvGrfFatVblkvHWsDxBoAACwC+xnOFEaz86VjdV0iAAAAnAQU7E20/spz6KYavGwEAADgTehdIgAAACwCW9i532HXxiXCLx0BAKBRKamnYz3GdER41RLhb8W5+7v+q7IBANEjEmM6smVdtfCqpojJcuZ30TzwrhEWtUAYVl8muo1t59YTGIguAEARULBrP6Yji1xVwqvaQZwsZsZGRDkiHSHV0XOxQBhWP2S0PdnXRm1bpHGqZPd1AEAjElCw6zOmY3XCq3LQp2x378x0gvr6EpTOZlhd0OVMvjCsfswQ3wMGMs4u73YQJ225y+S0+gfZelfLLIN8hgY7e2lK9ZRsvfoqo5yxrrs+Lxzl1BOFY7t51gUAhIKAgl2/MR2rEV413qxFeIa2CFGOCzFPqFjXE6PDlMgGu/YPw+rHzBiNTJnxsk2smCSJccvqzgykqU27SoQoT3fop4EuGu5nN0iMejZmBziYXHOiUY5vAHnqc8DlpqmP6+aUSdGIjpXiqA8AEGYCCnZ9xnRk2KKudHjVWLuwktkHwuJKy0VeXMg2W99CwNOu6H3SIi8yDKtfMCjpbhGir+rndrToSH9GPt9RfN0uZrl89ZlwORmyVVnYYl+mtFvIrA8AEGqKeOlY2zEdGRbrqoRXZT82C1tmmhJSnWPEGr5lJiNkO1dsPcOw+uEXnrXemMdCJljUAESNguono/R5DAW2qUdY2T3V+wqbRaV64VUtP3Z/f5qalTpzkLyRzn5K2/5rA88wrH6o8Kxxp094olvMSzHvpXVqAb/wnOrqKFyv8ZLUQdD6XOUAANGkgAJuo9tuIbp26DJyu6pXDd5EazbcWtWvRKoZXpX92FNkDAUmM6Yc/utSkeFZ2Z+sXRAitRELqTU2ZLpNuWl4KLBC40GKm0WfGpKsdcMzKlMTtD5nOZnwqSAAkaNAeNV8YVX5U79uoqFNdJmh5givCgCIKmEMr3rD+q/anWcKmK38dYjfp3u1GdMxvGLNHWwMi9VOeQYnAACAIimip+MZdNlnzqErczrIsOV9CT147eVVf/EYXvTYi+40iRFiAABVobBjeNUg7dy8jL7m6JZu9XrcZPpCAAAAVJVgb/LOuIw2OT7p20mDjWtaAwBAXajspxdVgN0MAAAAQi7YVQmvquJn1P29YL3bEZbjAAAITGgFmy3rqoRXLYVqi1uQ+vOVydlXfKkCwFwktILNwlOV8KpqUeTg3pZm93o35r5ycCdXT0sAQPQJtUukOuFVLcZyQpkKHJaqFjxXiFM2Xb3KyTxTJNVACDzpWa8mt34ZT9su7wyFat1wnN+Ad98tM7NwV3Q1KXFsP9f69twet6vVODZym7DcAagnoX/pWI3wqt6hTDkEqVeoUleI056MdznVhXxUC9zEKA3LuB5+9Wrc9cdk13bZNk7jCep1BAFhIZWjI9hlhlaqRRreth0xkLfvE1pV4b090a4+cWz0Dsn96cM35gDUmBLGdKwfbFFXOryqI6SoDmVaTKhSn3LJjqzATYymaYALBa3XxLSI24aJ0luyAitDwnqERDX2tam/Obuv+UKravy2x08lqq0cJ7wrULhCAEAlKXFMx9rDYl2V8KrVIrmWBtIscBM0mjYCSxUDi2d8hFIZ1e4Mh3YNgN5XLu8WZPM4yGREHsy7PSsW+OiE2J/hgOFlAQBVI7SCzeJRvfCqHhQKVapFMG85jqudptHu0WyY1qAhUE2RbcmKvSxvTVrE2ilFeUKl8stJfsGqfeVBQqvm2R7HAk+3tVF6YG1umwEANWUeR4XixOjpclKl4MfzaoZXzSVPqFIzxOlg3L+cgF0e6WGiPtvZGyAEqln/WDv1JbLujc7phMvCtnzeZqjUnJeOySEV3pVfEhYIrcrbzrc9vkG0tFCqpMcFAEAladqyZcts0HColQbhVSPARLfTJw7AHCaM4VX7rlitciPw0hFiXV/ky8agY1kCAKpK6AUb1Jfk0CwVGhQHAFAbINgAABARINgAABARQi/Y/NIRAAAalcj0dKxKeFUAAIgQkejpyJZ1ZcOregQu4k/WzDKOGB8AABAuQivYLKAVDa/qCjkqI9TJGEpquUjjVCDGBwAA1JFQu0QqGl7VEXJ0hsZGiAYyRkwNQXLIOQ8AAGEi9C8dKxVe1RFylCPeTSVoOXqDAAAiROgFmy3qSoRXzelebceLBgCAaBBqwWaxrkh4VQ4ZakbDkxHsRmjM/RISAABCTGgFm18CViy8qjvkKCVp7QBRr2vcw4lu9/BdAAAQHgIooDm2nzXNLgY5tmEV4W1UNLyqI+Qoa/ikmlcuE5HayCNONQAAhIQAKpih6Sk12sjEOupNjAvrd5wSveuqbo0mEglauXJlaWLNVrUrJKg1duGkPS6hYyxDTohyBAAIGSX3dORQmy3N/KouTs0tadpSAx8wW74AANCoFNnTMUlD0v/bRG3DXdZIKmxpU4ljFgIAACiJYBZ2cki5DVTHEp7HCCQAAFBTggm2HZdDxePgGBzmuIAAAACqTgDBnqHBzhFKZWZpvEtlJdfSANXmO2a27AEAAAQSbP5KpD7duBFeFQAAsgR66djRNUyjjh4m1X/pyJZ1WeFVGVeIVfnteE7YVdVZxpFvdKDxCsGaUwcnj/Ctkuy36+7UevVV1Op2LXHdcDcBADwI5MNODmWouZ+/Epmi3rgQGw5LWuWXjixo5UXqm6DuuOXKsV6YjlNiWnVON8Ou8hcwLJD83TZ3YZfLrJereUOwmnXIlP2+20mMeiZVGbt+a35yzYmqjIHH9+MAAMAEe+loio5MtQlDyh1myhNt05WTpCGvjjHJDuoy44zY1CkEq7aw1d/B7qxFbo+v4LDw/Sx7AMBcI49gCwtVugb4b1Y0sqk2cTdYtEsLr2q5cmTX8zwjycwM9mfDrpoUCsFqRgLkVA03htjGdIe6SY530XA/b4OfHKapT988eWCGTrhQAJirBOzpKCxSaUnzXyUOjlQbK5st6lLDqyaHVFs7Ri1R1cJtiG18JOUMu2qSLwSr2yVSDTeG2MZafZDjzdTCf2e2UJrUjYhTvJemPJ8QAABzgSJ7OmpLu/awWFckYp/s+DNOXcMe/mc/oQ1zCNYc/3ltbp4AgPoSQP04FGna+ZVIDWAhKkus2c9rukLYMi1q0IKQhmCVN5JeWlfXRgAA6kEgC3td7xQNt6lHcDtVV7h4G2WFV421Uyrdlm0vfzGyMY/bggVeuhfYXWLtW94QrG4fdqkv/xz1BDmmSRrKDFDaPB/4DBCAhqBpy5Yts8uWLVOztaX/K9dR32c/rea8YUubRQkAAKrNrl271FRprL9hQ0FN02zdupWWLFmi5pzs2LGDWJelRl6xWuUGsrDZ+GzNWnN2qo1rIFpi7fdFDT69AwCUT0CXSILGZzM00NJldSLhDiBdGJ0lF78vavw61QAAQHCKcAzHaHlCT7J/uB9WIwAA1JAAgp0dXSberL8WqV9AKAAAaFQCCDZ3S7ce6fmriY5R9sn2U7Ory3a1YJcCAAA0KiWP6chYvQdr45NFeFUAQKMTiZ6ObFlXJbyqHyrYUiluefdXNHm3AwAAJRJAsOvT05GFr2rhVb0oMawpi7WMR2J/ESK20xuHaAMAKk4gC7sePR2ZqoRXlZZ0N3UbgwrIHuwOC9v5PbW93M7T31XzsSEacPSgtHoi0siYCpHqsS2B0ypX9bnKd09kBz/IttG7PgDA3CeQhV3PaH1VCa86labmjWo/OGxpm3nzYZGUoxbY+zqUZGvdI6SpjE/iMfKOjPehIuj5bItf4Or6Z8cT1KuDg+jysmwnkZ6WoVWN5a76AABzn2AvHR3WJafaiQRb1BUPr2qKLA9gQGnasl3NcxxsMsKaMuWENPXalramdX1tw0TpLZYg6/IcTtWc5mWMX30AgDlPAMHmUdN7KWFYnLN6WC1VolqwWFclvGopeIU09QvBWigy4HYh1qZ/nXuOqkUAAOBHAPXjTjJd1GFanMm1wgatbqxoFrKahFedGKVhtlqXqnnuxUmu8KW+IU1VCFZ2j6gc62VnL1GqPfcFprktw1KeGRuhKWuyOHR9ORsCAMxFAiigx6jpNejpyK6CqoVXNUOa5gwoHKOejc7wpd0T/iFNZQjW1IgRItXyf0/qD9W9thXrob5ENr9zOhHcws7bdgDAXMYnvCp/JdFGw2rOGw4EVd6Lx7qEV2XLm9/l1ULoKr2tWrYdgAYkjOFVb1j/VbvzjI/Z6vdliJlq85VIRcUaAAAiRsCejmxl89cgzm+Ssymin5OV2EGmJCq9rVq2HQAQOvIINlvZbEXX9ztsAACoFY888kjJqRYU+SZPo61vAAAAtaJEwa4dbM0DAAAIuWBXJbwqf2mBUcYBABGkwEtHr5eNnAp98lc+bFmXHl41GzTJnVo3PKPKVIlCNwTcMAAAJVLgpaPXy0adqvvSkcW19Eh9PEqOaid3+za6lU+uOVGVqRL4kgMAUCVC7RIpP7yqP2PdWavb7sHO1q/Kc4Y8HaRBWb6bJuR8oRColgXtCKEq86y4LFOqt6KMme3YpnqR694m5wEAGp7Qv3QsPbxqHoRgTncoC9wOXTrhHULVUV49VRQKgcoI0e3sTdC4qm88wdH9rG7v2uKf7MnIuCM6sFZmIE1t+u7h3iYAoCEpa0zHWsMWdanhVX0RgmmHT9WhS/OFUDXLMzrgkl8IVIYDRsn6LAs5OeQhvDIgVbbuWHuKWnREQfc2AQANSZFjOtYPFuuKhFcNirJ8pYUtUznWrX4H0EGjprsDAABKJLSCzYJZU7H2DaFaIjOD1C2d4CzcGRpoMQYa0Ja7a5syzGpXB1wgAABPQivY7JYoK7xq0Qhh9QmhWhJCjKk3ruqK00hqI8mIqxxaVQ1d1joYd2wzzj5vHncSAAA88AmvWhvqEl4VAAB82Lx5s5oqnjPPPLMq4VX7rlitciPw0hFiDQAAFqEXbAAAABYQbAAAiAhSsNmXUskEAACg8sxjp3clU6Xhl44AANCoRKanI8KrAgAanUj0dGTLOpThVQsJPm4IAIAqEVrBZnENZXhVhE8FANSJULtEahte1bLK7VCrHL2PQ6ze4Qp1aljQCJ8KAKgloRZspnbhVYVV3iemR5V8TozScFcf9Sw1yxvBoIToInwqAKCWhF6w2aKuSXhVJtlBXSq86cToMHV1qEJeoU4RPhUAUGNCLdgs1jWN2Cckt6NrmEYnJmh0uIu0XnuD8KkAgNoSWsFmF0JtxdoiuZaj57VRemBtflfFDMKnAgBqS2gFm1/S1Ta8qiLWTqmWFkrJYWTygPCpAIAa07Rz586KdiXUYQGDEMrwqhPd1NTfTBl8ugdAwxHG8Ko3rP+q3XkmtBa2pqZiLZAvG/sg1gCAcBCZMR3rQXJoluC1AACEEQg2AABEBAg2AABEhNALNr90BAAAEHLBrkp41WrAX5bIz/vMWCQAAFBZQivYbFlXJbyq7OxSSSaouy1NAxkrXgheWAIAqkVoBZvFtSrhVWXvlgrC8UIoQcvxHSAAoMqE2iVS8fCqrrCmN5rhUTmUqhUz1ShjJe3myA2nKqzreC9NySBQKo/X12X8wqnK+W7qVk8B3RPZJwLbpeKox6ttVt25bQIAzFVC/9Kx4uFVjbCmH+uZtKxwTuMJ6tVBP7zCrwqxzA2nmpRdz20LfnI5rQsaTnUqTc0bVf1tnUR6WoZ65RvBNPWpbc1mUjTSqcTYrMezTQCAuURkxnRk2KKuaHhVM6ypacW2DROlt1iiaJbR4VcrHU61JUUyXAnXb07zMulmUVY7J7bidUAps54gbQIARJrI9HRksa5axD4W6/gIpdTLQunrVou8qXE4VSHM2u9uJS8xRohXABqJ0Ao2i1TVw6tqy1YgQ59ak94IgfcNp6qpVDhVVz2+BGkTAGDOEFrBZldAVcOrchjUhDX2Im+rczqR38L2C6fqwPJplx9O1VmPTF4vFAO1CQAwV0B4VQAAUIQxvGrfFatVbgReOkKsAQDAIvSCDQAAwAKCDQAAEQGCDQAAESH0gs0vHQEAoFGJTE/HyIRXBQCAKhGJno5sWYc+vCr3lswXcKnQcgAAKILQCjaLa+jDq8Z6aHISI6wDAGpDqF0ioQ+valjQuWFOhZXfyUGbrN6U0rLn8rqMjvvhahPnIWQqAMCL0L90DHd4VYXnMmHlb8xa95M9GRk7u2Do1XzbAQA0NKEXbLaoQx9eNd8yTdDQq0HqAgA0JKEWbBbraIRXzbesWCpZFwBgLhFawWYRDX141e3WIs9l2vGsBx5gy9kImeobejVfXQCAhia0gs1uitCHV12aZxnfCHgbXdbIMa2DcUfIVN/Qq351AQAaHoRXBQAARRjDq96w/qt255nQWtgaiDUAoJGJzJiOAAAAskCwAQAgIkCwAQAgIoResPmlIwAAgJALdk3Cq3IHGsTrAABEgNAKNlvWoQ+vCgAANSS0gs3iGvrwqgAAUENC7RKpVnhV28bm+dTdtIemaZ1tkaswq3q5bZ1n8xH+FABQD0L/0rHi4VW9mEpT80bLAhcGOfV2sghPUHd8mvqUZT6bSdEI5wsRR/hTAECtiMyYjgxb1BUNr+qFEQRKhj3lgE0cDlWGOVWWdJwHIxD5CH8KAKghkenpyGJd9Yh9+TB831ZicUb4UwBAfQitYLNAVkWsdbhTgVdIVTvsqSscqs0Mwp8CAOpDaAWb3RAVD68a66GNPDSXcnPYIVWFMOswq/GRFGVk2FMhyEY4VJn4BSPCnwIA6kRoBZtJJBK0cuXK8sTaNbJ5zBjHcXJoiCY330Kb1bxM5ijovG7OMu0SsRI+EwQA1IpQCzbDliwAAIAICDYAAAALCDYAAEQECDYAAESE0As2v9gDAIBGJTI9HRFeNSDF7sNc2GcAGoRI9HRkyzoy4VVZAHO2ZQSR8gKiCQAoktAKNotepMKr5nRjn0SHGgBARQm1S4Q7zEQ7vOoEdYsytlUv6+N6xBNAJweTsnpYyuVe21LtHezW+U3UrbvKm+U5MJXK9qzHnW+WBwBEhtC/dGTRjkR4VaN7u0xSyK3u7dS7TtTGIj1CqQxb3uIJYGPW8p/syXhvS9U73aHyx7touF+3rZcS47q8qIvL+rXZtzwAIEqEXrDZoo5EeFW3S0R3cbfjl+SJO+K3LV4m6l2r47fGmy2h5fJmvsavHr/yAIBIEWrBZrGeC+FVY8sTaioPntsqgUrVAwAIHaEVbBabyIRX3W4t8maCutuIxmfHKdHbmfUpM7otftvyQ5YfoTFVl70ffvX4lQcARIrQCjY/0kcmvOpSZx1W4hd+QqybWK2VZT6eEKsqi1y0pa/Lcl+0Dsa9t8XlPNF1WWXt/fBrs295AECUaNq5c2dFuxLu2LGDli1bpuby0/+V66jvs59Wc96wpc0iAwAA1Wbz5s1qqnjOPPNMWn/DhoKaptm6dSstWbJEzTnROsoaecP6r9qdZ0JrYWsg1gCARiYyYzoCAADIAsEGAICIAMEGAICIEHrB5peOAAAAQi7YNQmvCgAAESG0gs2WdenhVQUc7MjxLTOHXDWCIVWanO0BAEBlCa1g8+d8ZUXqi7VTirK9+2hmTMxlY4YAAEDUCLVLpLzwqjFqTxGNaMXOTBOl2mVAJkd4VM9QplZvRM9yEu7BqPM55GmhcKmqd6PHNgAAICihf+lYTnhVDro0NW1FDpkYHabEcsu8jvVMSpeLTNxlWwffEIJrhTK1AiZ5l2PXigwOYi8bSnqFS82GM81wd3gdyNq1DQAAyEdkxnRk2KIuObxqsoO6hkeFJTtDW9Jd1KEV0rR+24aJ0lss37M7BKlXOelaKRCq1BXOVIZsle0QuLcBAAB5iExPRxbr8iL2JamjK01bJoTIJjosi5ZFOM4DCSgL2S+Yf9ByAABQI0Ir2CySlQivmuxIUG9bLyVs81pgDFiQN9SoVzn5MtMnFKpPuFQ7ZKs1CwAAJRFawWY3REXCq7JbRPyz9ZrDmiayoVB9Q436lrP81WYIU+mezhMuNc5DismQrQAAUDoIrwoAAIowhlftu2K1yo3AS0eINQAAWIResAEAAFhAsAEAICJAsAEAICKEXrD5pSMAADQqkenpiPCqAIBGJxI9HdmybtjwqmaXeJmMducs44RAUgA0AqEVbBaihg6vqgJJWd3ixZ7EDVE2l8mEQFIANAKhdokgvKqCu7qrSQBA4xL6l44IryqYGKXhlmaKq1muQ3eZd9wQAABzmtALNlvUDRle1RTl/mbKTPbIpwMJXCIANCShFmwW64YNr6pFmberowACABqa0Ao2iyTCqwpiPTQ5TtQGtwcADU9oBZtdAQivqkgOWX5wfvG5XeUBABoOhFcFAABFGMOr3rD+q3bnmdBa2Jq5LdbOzwOzqYodfAAAkSIyYzrOfZI0xC8Wc9Ik9difhAAAgAUEGwAAIgIEGwAAIkLoBZtdBAAAAEIu2AivCgAAWUIr2GxZ1zW8as76LgotBwCAChNawebP2+oaXpV7GJrxOwAAoM6E2iVS1/CqhgXtKC/zSg+nmlsXAAAEI/QvHesZXlUiRLeTu5ar8uMJjhdSYjhVz7oAAMCfyIzpyLBFXbfwqowcPIBjhFgWcnLII5Rp0HCqQeoCAACDyPR0ZLGuW3hVG90bsYNGTXdHSVSyLgBAoxFawWYxrXt4VUYIfLd0crPYZmigRdwAtOO52HCq+eoCAIAChFaw2V1R1/CqGiHG1Bu33CdNcRpJbbTifJQSTtWvLgAACADCqwIAgCKM4VX7rlitciPw0hFiDQAAFqEXbAAAABYQbAAAiAgQbAAAiAihF2x+6QgAAI1KZHo61jS8KneoQWwPAEDIiERPR7as6xZetZriPdGtvsNWScccCRu4gQEQOkIr2CxmdQ2vWgVkpL42soM/cRonFXMEAAAKEGqXSLXCq0rr0bZy3fE8ckOneoZjlUXNekTSFqkjX5efobERooGMM+CTHQDKq03Syu2m7lYrv3uCnxL0dO5yO18uChBC1q+cxzGQ69rlzPYhfCwAtSL0Lx0rH151wj8UqsQdOjXmE47VWU82iBTnT1OfLp8Rdn6nEC628KcSpCK8usjTpqk0NW8U+eNdNNzWSaSn+5UY6uWybVzGEs6gIWS9yyF8LABhJPSCzRZ1RcOr5guF6odpXepwrK56bDhfhlBV5YXQTekgUS3NFJeFXOQNz6rcOPFmIaDGNC9jjEBWVtwUFVDKq81cxt1mv3ImCB8LQCgItWCzWFc8vGqxsKB5hWPNTPtH+RMixpapbbmy9Skj+hk+9Wqy3afNbvz2rWQQPhaAahJawWYBqUp41aChULVVzHiFY2Vr1kuAXfVnSdLaAQ7W5xSxiW4xH7RNhZgYpWFu61Ix7dVmL/KVQ/hYAEJFaAWbH9GrEl6VxaRQKFQzdOpYu084VlEP+3zjyp3Arg+db9Qvk3r5xv5i6f/V+SK1EQtfgDb5IYRUt01+gcIDBwcNIZuvHMLHAhA6EF61UvD31aMdNBtUaCsBuzT4PSRGdwegIoQxvOoN679qd54JrYWtCbNYT8jP2VRi67aWYg0AaAgiM6Zj2EkOqZd1MtXhi4hYD03CugagYYBgAwBARIBgAwBARAi9YLO7AQAAQMgFG+FVFUaEP0cvegBAQxFawWbLek6FV+U69RclMgVsC01Qd1uaBlRvRHyIAkDjElrBZlGba+FVHV3WOSiUq9ejJzI2iV/QKABAIxFql8jcCq/qgrt7q0mJ5zpWFL8pHUyK6/cqx3limRnm1LM+RzkrZV0sYlt2eSN8q52X3Q+EUAWgPoT+peOcCa8qlxnIuB86ep/fOlaXdd2W2cnltM6vbnGDyYZNzdMGu5xIdphWdhfJkRWsfJGGkj51CBFHCFUAakdkxnRk2KKeM+FVzbgf/c2U0Z1e8q1jkq+c2Zag5XSYVukucu2LXx3yyYDzLUseIVQBqC6R6enIYj1nwqua+VyHW5D91nFT6XL58KxDWP1yGiFUAag1oRVsFoi5FV7VgLuUj5NtpQZah6l0OY18Qesq71eHuIEhhCoA9SG0gs2P4XMtvKqD5JAKtcov8wKuE7TuwOU0lt/eLN894VOHEHKEUAWgPiC8aqWoR3hVAEBFCWN41b4rVqvcCLx0DLNYI7wqAKCWhF6ww0zdw6sCABoKCDYAAEQECDYAAESE0As2uxsAAKBRiUxPR4RXLZK5sA8AAAeR6OnIljXCq1YBiDoAkSW0gs2ihvCqAACQJdQuEYRXdeeLxNvgPNNKds8LvNucu2/O+tWxUPWZ4VoRUhWA+hP6l46NHV7VbxuF8W6ze98y/sdCiLodrlUIOEKqAlB/Qi/YbFE3bHhVv20EwavNapFNvmNhblc+DSCkKgD1JtSCzWLd0OFV820jH35tLpkkQqoCEAJCK9gsNA0fXtVvG4zRPrtNJl5t1uh1gx4LcQNASFUA6k9oBZsf5RFe1Wcbon0b5bpWfrZNCm6/Z5sF5r4NxgsfC0YIO0KqAlB/EF61UtQivCpCuAJQVcIYXvWG9V+1O8+E1sLWhFmsaxFeFSFcAWhsIjOmY9ipRXhVhHAFAGgg2AAAEBEg2AAAEBFCL9jsCgAAABBywa5peNVi4c4piKkBAKghoRVstqzLCq/Kn8A5euRNUDd66AEAIkxoBZs/YysrvGpyiMa7hqlfhb2bGeznb+LwlQUAILKE2iVSXnhV1uxxSvR20uDEIHWOpOxgRp6hR5WLwwopaiUduM43vKqG17WXG1a8I18kdqG4XSnmvKO8x3YAAA1N6F86lhNeVUg2rR0g6m0bodRGFRlP4B16VDClQ4pyfhcN91tC6lte4gyBmg1RWmxoVL8QqwCARiYyYzoybFGXHF5VwDGxczAtWTP0qBlSNN6cFVi/8oxfiNJiQ6P6hVhViwEAjUlkejqyWJcXsU9Yrdydm61iba2y+BYTerTY8ppSQqN6hVhViwAAILSCzYJVbnhV+0Vjci0NkBG+NF/oUS/ylfcLUVpsaNQgYVkBAA1NaAWb3QJlhVed6Ka4/aLRGhor3dZNE/lCj3pRsLxfuNZiQ6MGDMsKAGhYEF61ViA0KgChJ4zhVfuuWK1yI/DSMcpijdCoAIBKEnrBjjIIjQoAqCQQbAAAiAgQbAAAiAihF2x2JwAAQKMSmZ6OoQ6v6gV3ssGneACAChKJno5sWZcVXlXI5mCr8ZWGTIUCN1lJB32CAAMAwkRoBZuFs6zwqtxZZtL4SmO8y9Fj0YHZJVx1XpGiHeuhycls0CgAAKgnoXaJlBteNQvHFEnTgBGxzxcWaRZtjtRnWtgOS9wnhKruzcg4ymcte0eoVljvAIAiCP1Lx/LCq1pMdLdRemAj9QQ1lWVcDzNSXrEhVH1CpQoR7+Su6yp/PIFofACA4IResNmiLie8KncJb0sP0EZDrU0rt3XDMyo3D8WGUPULlco3AplvWejJIXSmAQAEJ9SCzWJdfnjVXFeIOSDB5JoTVa6BFOJmiqvZkvAMlZqkITndQaNSzDHGJAAgOKEVbBa5csOrFu0KkSg3R58h8n4hVGV+NoRqwVCpM4PULZ3ZLNwZGmhJ0xY4sQEAAQmtYLMroazwqkJ4R4d51K+47f7wtWiFuOrwqU1N/dScmSVnnKZgIVQLhkoVQi4Kq7w4jaSKvZkAABoZhFcFAABFGMOr3rD+q3bnmdBa2BqINQCgkYnMmI4AAACyQLABACAiQLABACAiQLABACAiQLDrDQ/Oy5/52SECAQDAm4YRbD0griN0KgtlFQMw5WxTMkHdvF0VEGqCPxYXdHVUo5O6c1sAgGjTIIJtdaIRskhaF3WvxJZUe5XCp+Zu00J3T5+knphfmUphbktlAQAiS2MI9sQoWbrYISSMmaGxESnXlJIBsnMHO7CtYu2y0EkvMF0ZPO221HO2aaEDT7Va5rVVxgwUla9+R8hWK+W00yh/h7kts4xO9sp59h8AEBoaQLCFGPWzLLbQgA6rNzNGll7zgAbsNohT71SXHfaUE/c8ly6NNsqGQ+0S6wz3O1wZNNwmygznWOrerg7njcIuI8Ozjgs7W8BRAMUfz/o5VrduowrlOjxqKWtu+QSlzW357ov//gMA6k9kxnSsCA5x1lmGO8Rt5WrTUlijQvcEWetXziuRt/QxK3KTDp+Dj6vDdaNwlJEhWXkZRwn0qd+0kNVgCdYNwaN8ezq7rUyefcn47D8AIBQ0Vk/HzLTLV+1yhySHKDNghWySCAuVXQhO69dIPGSYj7vDxs8d4nWjUGXyLWMsC1lYzgMZ0Q6O9Me5Suw9ypv1ZfLti8/+AwDCx5wX7Jkt0m7NMrFOPP4LITPCrur42NJNIIWcSK+W9oh/6u3u0Hi4YCQ+7hCuQ45EIxslB1rIrT9rQfdxo7WlrgQ6t7y5rfz7wuTuvzowAIBQMecFO9azUVqjdphVYaWypZnjYpBuAnYp8BcVPICv5VN2hGeVLxZ93B0aLabCvtVhV2VYV093CBu0Yjm7N3jAAzngr1f9cWqWRrByW/i4Q7J6bW4rz7747r+sBQAQMkIfXhUAAGpFGMOr9l2xWuU2xFciAAAwN4BgAwBARIBgAwBARIBgAwBARIBgAwBAiIlET0f+LtgLv/zQwXE/3PFFglLOugCAOUXoezpu2LCBPve5z9H+/ftVjgXPc/63v/1tlZMHj0BJoQoz6iXKEGoAQB5CJ9gHDhyghx9+mH7xi1/Q1VdfbYs2/+V5zp+enpblCsKdUbgLtp1C3imEgzvJzjMAAJBL6AT7kEMOof7+fnrzm99si/bu3bttseb8L37xi7JcaVhB/e14GdIStyxvHfrUYY1Lq7ebulX40e6JbChSGSfJtdzON5Hb0MvzWPkOC3ua1tl1mm0ZpEE5MEK32BPO8muzWc5qc7ZdfAzytAMAEEpC6RJZsGCBFGUt2qlUyiHW8+fPVyULMNVLcVvMRJJimKShzABR7zpLyDpHKJWxLG8dU0Om8YQoohRuKk3NGzmvi4bbOon0dL8SV71crsdlLDG1EOIYn6Y+XW8mRSOdAdweRp2yuXodsU/THZw/JOOI+LfZLBejnj7RLhWKVQaL6upDF3QAIkZoXzqyKGvRfumll4oXa8btEtHuhlgPbRxIU1tTnEZS2SBQDkuY44+mt1giKWNyiL/xZmoxp3kZo/OYZAd1UZq2bFfzMmxqNqypjAMyNU0ZtdgXo85Ye4pa9Dpin5wxpfza7CrH7TJibXsHrgIAhJnQCjajRfvv/u7vpJukKLEuQGx5Qk0pWPjibG0rcVcDBFSEHF+6ZR2XTVFtTlJH1zCNTnCwKJ/AVQCAUBNqwWZYpDs7O6WbpHJMULccfWWcEr2dWV+uYdXqeNJFw+4Grmepmo8tp8RUL2lPRSnItrhia9sU0ebk2gFKt7VRemBtZW4YAICaEnrBLgu3D1u+aOMXbqzWbOUmaYj9vvFumoj1UF8iW75zOhHcwja3w1U7vvSwfOZpDqOqy+gXi472mX5vgbEsPpKijNeYXcW2OdZOqRbEuwYgqiC8armwW4LfQ0bhczyOf93frOJuAwDchDG86g3rv2p3npnbFjZwIF829kGsAYgSjTWmY7WJUGeX5BBGQwcgysAlUoDNO9QEAGBOs2IJRpwBAABQISDYAAAQESDY1eLRQfq79kF6XM3WnHK3X+/2AwBygGDXgnqKX6FtQ5gBiAwQ7LnO6T30rbEeer2azaHQcgBAaIBgB4Ut0dd0071qlru3f0nPy2VN9CaZzDLMDH33f/TS7+7vpQ6x/O+GZ+jx4VZVllMrffdRVdRRj0ja8nXkG+XdmOVaxDZ1Htcjl3m0Xy/nLK/1GTNfb1+t9921nOfeZwBANYBgB0VYoh//yDD95A41f8co3fyRDrqAhU+IW+w7s/SrP87S6DVpunyt2ck8Rh/6twF6w3kDNCqWf6srRq/vmpRlZfpOgv7lehlDz1HPr6bEOnJ9zp+mj+vyUyna9D+8XBh+6yt8268pYfviJvToezh/yKgHAFBJIjGmYxi54D1ddPNtlhjfe1uarrgsKSzNLTQjxLjzIplNr1+Vojf8x2h+i9O0WD88TDS9RVjAznpsOJ+G6XJdni3f+6fp92KRaan/3Zd/5r2+gWf7NSVsnwpsDwBQPujpWCoXraUrplmMJ+gn0yl66+kqvxhYrFtGaNWUy5LdNp11QbgRwsjWuSwvk2XRmpb6tz54olU2H6W232f7AIDaAsEuihi99b1p+snaUZp5b7v1ou705RS7v5c2KlfD45tG6HcOV4NCW6XMeVmxlOV54qIOev/9I/RTt3/aVb8vslx2fbteBx7t1/itH3T7AICqA8EuEnZ5zPwH0ce7dPSQJF0lrOSZD1sug47PJ2j9OlfADuU/ZrfC321qp483Wy8gufznMwnlKxb1sD+7xXA96Hyjfpk8P8Nzrp+t10lu+zV+6wfdPgCg2iCWSAHqFkvkjm56020d9Cu3+AMAqgJiiYCiuFd+IqfShynXUgcANDQQ7BBxwTq82AMA+AOXCAAAKOASAQAAUBEg2AAAEGLQ03GuwIPq8ojp3Y7x1gEAc4iG7Ok40S2EjcXNSK2DM2ppkfBI6VxH6yCVWIOoojVvG3R7nVo8Qd2y7a3Eq/GgukxXRzW+JnFuCwBQfxpEsCfI0rYuGp+dpdnMALWIuamRsdIElwfe5XpKHnx3hsZGpsTfFkq1e9WQba9Ti5M0xNudnaSemF+ZSmFuS2UBAOpKYwj2xChZ2tYhZEiQmSaWS0osp5jpVuBpZTVrC1gnbelmLXXD8tR16GSYxe56mrpvpMHWOPXKBkxRb1zkuS11d3sVDqtclxH/b7PrthuZndf7pJ8KjGQ306P8He4nAN99nBH7Y+SLZC8CAFSUhhBsp+tAPOq38XwLDaxN2stouI2aRH5LKkFjQoDivUQDmaw1PtxviWpyrTUvChIbx1LA28iy3EUa75KFhZhbQhYXytw1bi2bFQu7Oj5G7SlZA7UMZKx8l6Xu7epwWuV2GVn3uLCzBcOjYu+y62f3qZ1i+qmAk96nUUtZvY5B2tyW7z6y24RvPurJRaWhqlj8AIAGEGztOmA9YguwjYZbBijjcitowdlIfdL6bRnY6OkKmBkbkda5FEFhdUrtN6xc614gxDyzzrKiu8azApYcEtMlukNmxshajW8UrjIzWyjNsy3NFDfW1/s0yTtiWsjibiSbpm5gOeXb09ltZfLto8vKh2kNQFWZ+4JtuxfGbQvQtmhzXA+5YuoQ6LxWrpEm22msX6qatOIdOITXynLg5w5x3CicZfItYywLWVjO0qLP0IA08JXYe5Q368v47qM4huIGlLEqsxAWeskvcgEABZnzgu3tXrDIt0wyM0idlrlNG9lKdYjtDG2RZi1ReoufSE3RdEZNCguXDVDnDcDNDA16Cr3PjYLb7Wpj7j5lLeg+cx+UQOeWN7dFBfcx1jMpBVy6SVT7AADVYW4LthAzqX/amnTg5XqIUU8fK496GciuA7bMlUXuFFtRdtLyHU/1xrPuBvkCUSzbqPzE0g3DFi7J7cSWJ0SuXsf1yZwWU719WWc3TXi6Q1Td3EZ28cg2eu1TnJqlEazcFj7uELu8Y1t59tH1ErJtmF0q+KIEgGqCWCKB4RdsbUL2hPWbgTABMBfZtWuXmiqNasQSuWH9V+3OMw3xlUh56A4kEGsAQO3BmI5FoTuQcIJYAwDqBwQbAAAiAgQbAAAiAgQbAAAiAgQbAAB86OnpUVNO/PKrDQQbAADy4Bbneok1A8EGAIACaJGup1gzEGwAAPBhcHBQTTnF2syvJRBsAADIg1ucay3WGNMRAACKQIt0PSxr9HQEAIAiqZcbxASCDQAAEQGCDQAAEQGCDQAAEQGCDQAAEaHuAxgAAMBcotIDGPRdsVrl1lmwAQCgUSlFsOESAQCAiADBBgCAEIOejgAAEBHQ0xEAACIIBBsAACICBBsAACJC3T/ru/nmm9UUAABEm/e///1qqjCR/A6bBfu8885TcwAAEE3uv//+qgs2XCIAABARINgAABARINgAABARINgAABBi0NMRhI/HbqTVq2+kx9RsKCnUxijsA4gc6OkI6gsL29KltFSl1TdC4gAIAgQb1Ji76HMrx6j97u20fTunDXTWzKNqGQAgHxBsUAfOojNOU5N0IX35yxeqaaI7Ppe1vD93l8p0WOSfE5Kv8rT7QS5X+SLnxtV6WiHLfo4+t1rXy2UCbIMx81deQ5tVtrP8asJDAqgFEGxQYy6kd33ou7SGhc5WS8Xma2jmXcry3vAh+u56FmS2yK+hszZY+Xd//mFaw+uddgadtXmG2DZ/7I4xOutDRLfL6h6lGYrR6Txpsvlhig2oetf0EunpfNtw5W+/+/O0QlbG+TN0uXxC4Px2GuuF7xpUHwg2qDkXflkJ3btutyxULdwrPk/d2tg+PWaJ42Pb6GEj/7SL2mnFd28XksnC/zBtEyr56MxZ9K7uGD3Mis3lzzqDbANes6KdLuJMrtec5mV+23Dl23A+qZsOJ7a81c0DgGoCwQb148IvC+HeQB+SAlw8Qm9p5tG76PaHhUV92kXU/rCo59EZOutdboWtAkLI79YWtkxfFrcQAKoLBBvUFvb9mq4QacV6uDA00vVxDQ2pVdj9sflD75LiyJYwrV9PD7dfJCzq04hnb7+dKOZbmQ9+25D5Y3SH8nXIfJ5wlQegVkCwQW2RlvAa9bKO3Qlj1D7wsVwXhs2F9OW7P08Pr7HKr7zmLNqgX1IK4WQFbZf+DWv2u8LaVrNF4LcNkb/hLLpmpZXfO3OW8mE7y8uE769BDUC0PgAAqADVitZ3w/qv2p1nYGEDAECIQU9HAACIIBBsAACICBBsAACICBjTEQAAKsScH9MRAAAaEYzpCAAAcxgINgAARAQINgAARAQINgAAhBiM6QgAABEBPR0BACCC1PWzvquuukpNAQDA3OBLX/qSmspP5L7DZsEOunMAABB2itE0fIcNAABzGAg2AABEBAg2AABEBAg2AABEBAg2AABEBAh2JZgZpNbWQZpRszWn3O3Xu/0AAF/C29ORhaOpiVoHDemImpjUs72Ftg1hBiByhLunY0sXJUY6ydRsEJBYD01O9lBMzeZQaDkAINSE0CXSTGv7EtS7bkLNZ5kZbKUmYYFbqdUSdWk1dlN3q5XfPTFDg/a0tZ4s417PzjfmNTK/m7ItmKBuPe+oyyzDiG139tLUVC/FxXJ+UvBssyxq1iOStnz92urGLBcX29R5XI9c5tF+vZyzvNZnzHzHMR6kwW7Oc+8zAKBWhNOHnRyicWrLCq4i1jNJs7OzVho3RH0qTc0bOa+Lhts6ifR0P4uTEKv4NPXp9TIpGuks4BYQlmhf1zCN6u1PjNJwVwclZV29lBi36soMpKnN0cgY9WwcoJaWAcqI5ZM9MZ82O+uZzYh15PpB2+q3vsK3/ZoSti9uQtMdnD9k1AMAqCWhfemYXDtAaSm4Bqb11zZMlN5iLW9JUTs/58ebhVga07xsZgulaZja9HpsTU5NU4aXsYtgdpKEruaQ7BCCrxRvYjRNA2uFTHFdQox5kom1p6hleFTIXB682uyqxyZPW01LvfXqn3mvb+DZfk0J26cC2wMAVJ/QCjaL6cbUCK0bU/MsfPERSmXcVmEAhNiwxSvXkymAlZhcSwNpFuMJGk2rm0Cx+LU5M511QbjxaatpqU+uOdEqm49S21/KsQIA1ITwCrYg1tNH1Gv4V7X1LJgZG/EXPZPYckqIx3kPl7glqL5+4hi1p9I02j1K6VS79aLOVZdsg8PVoNBWKePV5mQHdU2N0Jh7u/naaiLLZdf3PhYe7df4rR90+wCAuhBqwRbKRkPjXdYk+2UT1ss8flzvnE4EtLBFHcKyTbepx3xOAT9tY5dHepioz/aZOOuK9yZofMgl18p/zG6F1rF2nzbzfiWoN67aw64HnR+orc71/Y5Fbvs1fusH3T4AoB4gvGoYmOimptEOmnWLPwAgUiC86hxlQn4ip1IbUY6lDgAAAozpGAKSQ3ixBwAoDMZ0BACACBIdweYvOqL6Aqyebcdxqy1ha3Ot2+PeXpDtR/E814lwCbbXiQvjyeSXhNr/zMndJdMFfzZH73iGOuuwb3XZdoXqlm1XnyQ6u/i7AoSVg7utPO/41HMiG5YggpjHsKYUcQ3UrY0RJPwWNvdGDFHAIikc/JLQ6FwyTvl7O2amxfV4YYDOLlWgntsuF9n29pg85vGRlNGhZ5wSvfHKiLb89jz73bwUjxaiaTuDe4U2U1zNRg19DGtOEb/burUxgoRfsB136mlapwI75QtM5BlwKaecFSQqaxyzJWWU9exQM0P8ex7IOF8SJofUvOd6EzQ6nKDlS9WsD4426/2V9RXaD591JSVs27GdPEG1XMvtfD6urgBYsqwqYwePcuyHub5GtT02Qet6xTHfaP74re/FaWTMCnRl7rNjns+ps/7cY5Wkjq40bVEVZKYT1NeXoHQ2g9XE2nbB/VB5GvkkZh3PnO3K9byOn6us43rK3R9nm3yuPTKPicA4Rp7Xjled+fbTC2Mbnr9bG32e1SzIS7ReOuogT8LK4t9rr09gIv8gUWa5GPX0ZeNtWAGS+jzjitjMjNHIVJEXV07gJQ/Exd3JnXBUm8cTbPEFDMTkua7C3LYSUPvHaXfWyXe88gXVMpbL9bgM/5DdAbAyjkBTjoBZ9n646mV026WF69G13mUZ58I3GPkoZO/bUNz7WMWbWft5yzO0hYQ1neygBN8MRM7E6DAl5Ann81FoP4wbOQuW3Pwk9QjB9DxHnsfP73x47E8yzzXCFLr2yrnuZAUB8fvdMkF+H8AmWoJt/HBl4CW/wET8Y9HC5AgS5SrHXcRV8Cb+YXZ1qIX8OOcTFIryPR57rOeo1w8WHxl0yfrBSos9aCAmr3WtJc5tu2OEiF+O3TvS93ip4+0VVIsxhZSPpWixNkxtXIGmHAGzzP0w6xUEOm754Jsruc63z7HiNkkfiFxnubjlxIVs87EWAp7uItmMoPvB8M1Rip46F37nyO/4eZ0Pr/3Jd40ICh7Dcq67YvD73QrKPs8NRrQEOwh8sQcOEsWPwxyGlB/L1A8zH3yBe8UA8YV/8C3UXNABKh7xpZB20Kj8oVg/oByR9bRsfNYNuu2ijletMNrud8ylgBbrW/Y5VrwNFt/MNCXkRcBxWEiIZ0bIdgn+a3Hexh2hd/3OkQfbizwfvtdIkPNfznVXCYL+PoAmsoLNL4c8Ay8xxh1dlrMmPZFhXNvaKD2wNluXtHDcvjYmSaI49cadP7iJbjXvXk9aRaotHsIj25YQFp1Yr1uuxD+gDA20CEtLWHqBAjF5rcuz5rYLUcTx8oUfbU2LUVtRcr8DBMwycbRdHXPzMVocbeme6FN+bcNis9sfaxc1uI6f37ES8+zH7u8Xj+5KPESzaaSzv/jAX4p4z6SM6a59+Dnb3W6Vs9HHj983eJ0Pr/1xtcmB+/x7HaNyrrsScRy3Yq7RBibcPR3FxZL1tbosEWOZ/GrAqzs3B18qJkgU/xBaWgK/pWb/ovRfqvo5tZH3D5cvTvuFFf8o2B+oAz6JZO8Dq0NvXOXHaSS1kXpiXD5AICbPdd3bzkOxx8vEPFfsXtVfBXCdOgDWYNyxH54Bs1y42y6PeWrEuC4sX66sRmxro3E+su23fOnm8evOeB8rhv3YU6Z4yIwp5b9mnOcjyH4kh9TXLGNH5W6Xhdnr+PmeD4/9mfC/RhzH0O8YlXPdFYPP7zbwNdrgmD0diYM/VTJt2bJFPEUF48orr1RTdWS8a1Y8As6KR8CKM95Fs13jaqbGVH3bmYHZlnoctyput6ZUeT/qee0FJQptLJZiNI210ktDOWkdvebLg7Oze7fbae75sItEvvTQj9YVJaBfvCrUc9vlUqDtDgvUy20FanP+JxyfGGZT0HMS5Wu0fiC8KgAAVAiEVwUAACCBYJvMDDp7hBVDOesCAEAAwiXYLHol+8RqgJcoQ6gBADUifBZ2zkf7Pj0Ow0IsXMGpAABzl4i4RKw30nZ0NmmJW5Z3ZQMXGcht6OV5rHyHhV2j4FQAgIYkfILt6DgjkhRD62N+6l1nCVnnCKUyluVd2cBFmjwBcPLhF+RG7JMZNMe/zWa5EoJTAQDmHOHu6eh2iRi956zeWs4eag5LuNzARbq7cIGgOr4YdVY1OBUAoGGI7JiOseUJNaVg4atW4KJqBcApqs1FBqcCAMxpIiTYE9QtQ0hwfIbOrC/XK1BOsZiBd5h8QXUCIttSreBUAICGJPw+bPmijV+4sVqzlZukIfb7csQ830A5ATC3YwYukuQJgONoX/iCUwEA5i6N2TWd3RL8HjIKn+PxMFP9zZTBp4MAhB50TW9wqhecCgAQNRpTsCPU2SU5pOI+AwAaHljYAAAQESDYAAAQESDYAAAQYsLd0xEAAIBNZHs6AgBAIwPBBgCAiBA6wTZDj3I4VcxHax4AUD0wCC8AAFQI9HQEAAAggWADAEBEgGADAEBEgGADAEBEgGADAECIQU9HAACICOjp6AcPbKBHlgEWPICC+s66u4wh0xqGMF9Dc/36boDfb7gEmw+4Eods4iHC1HJQefJe5DyOZpoG1IDBkY3LXekfsld9oRGLGRpsdf+GrNS64RlVxkXQtld7H0NzDMNL+CzsnNHKJ6kHw63Uh5ktlKYELcfxL0xoBsWIUc+k+u3wiPzG72lyzYmqjIugba/2PkZoYJF6ERGXCA/Ca3R95juxsrzNrtG2NS7v1N3UrSyN7oms1SEf613L7XwTuQ293M/Kt9rlqMOxnhqkt5z2+NY3SIPdhcqbx8OrvGhHZy9NqcGDnV3Lxb7FxTIapjZehy2fgm1xDUosl+XZb2UN2m3nbXoea9dxvtHapl1MtcHaVeN6kHke++i7H/naWgCjDUTTtE6t630OrG36X7tmuaDHKDhj7uvAaHvu8TMIWk7guW8ucurQ9cu/Jf5eNFxGLfP//UaP8Am2Y1RykeTFYI1iTr3rrAu4c4RSGcvyjvVMZq1xHk19nTpzU2lq3sh5XTTcxiPuqul+dXHp5XI9LmOKDYvVNPXpejMpGul0X5R8EfFw66qMSENJS+QSKi8zkKY2fSWV1J589fXSdIdRXtaTp92e5YU1tjFrhU06HmWsY25baJPLaV3BtvCo9i7y7rfYfp+YHlX1TIzScFef64nK4zivVIvciB9pZ29CFLXKjSemKZOzj5nSz1FQjHMpL9ucc2AdJ/9r1ywX5BgVged1oPA8fh4EKOe7b5pCdZT0e9EE+f1Gk/C7RPQjknhc2sg/rqY4jaQ2Zi9Y807aNkyU3mKdmJYUtXOZeLP4sRrTvIzReUyyg7rEw/+W7WpeugKUZcmJLc0p1wU1M0YjNEBrTYXi9UT7dV6sPUUtw6PWhVRKe+7IV5+xbV1PvnZ7lS+GvPtm1O2m0H7zvqp65IDDHa6KvI6zH7HllJD7b/14k0MeN5ByzlFQjHMp6/c6B4zvtesqV+gYFYNZt3vfghw/JtBx9tk3TaE6Cp0L4xiX9PuNKBFxiVjElifUlIIvijhb2/pOKiwptahsxIXtuHF4WY9hJHLtTlJH1zCNTkzQ6HAXlaNFXNeQ3OcOGpU/VtPqChlFXbuVPEb5CHr8CpQLtG9VPldR/f0WIEKCLR5z5JPxOCV6O7M+KeNOOzM2QlPWZHHwYybXs1TN891fPDq6n+IcxNopRa4yrvVke7o6ir9QdHsuKrK+IO32Ioj1Ual98yC5doDSbW2UHlibW5/XcWaMNtvnXQhFt7wwWAwyNNAirC59nejyVdwPL/LWX8S163mMpBVbQaHLd/xMgpQrtG9edWgLuVhK+f1GlPD7sOULAyHWTazWfJcUJ5h9YnFxocZ6qC+RLd85nQhuYZvb4aodb6fFNoRVkG7TbRAp58WK5Rs1y3RPONeLs48u6Ldwnu0ptr4g7XbBx1BYb/z4mD+edRn7VggW5ZYWStnPuCYexzmj3WPWvH3exQ9VXBiqnOE6c+xjvDL74bhOXaJpLIuPpCjjVX+x127eY1Qh/I6fm0LlguybVx1acINQ9u83Opg9HRszHjZbJvweIyyfEIWtPbWGO+f0N1OmUfc/CDhGWUL8e0E8bDDnkS/S+iBE+cAxAkxjCrZ4ZAvVB/pha0+NSQ5FuBdljcAxMmjg3wssbAAAiAgQ7FrBfrd6vfgod9v1bDsAwGbuCHYhUTGX11uA6rX9Yo4RACB0zB3BLsav1ag+sEL73eC+dADCTrgEW1l4jkBCnKe/pTSCuPgGjvFaJv45AgBdfZVVVtZtfkPL33vn365N4HXNMoyrLaJi30A5jnpEUvtXsG2MWYa75uq8fPutl3OW1/qMma+3rdbzDAAFAKgY4bOwhZBlA98IIfEK4iIEwjdwjOcyVwAgHWZSWJTcoULH1ZE9pmSvNJ/tqmKSvOv6BBeSuIMRxURVXoFynPVku/cGaJvvugrftmtK2LbjvAEAqkH4BFsImR2cxi+IC3c99Qsck2+ZB8mObCS0idE0DfDGAwaP8V3X2AdHcCE/TKtVB8px1WMTpG1+6xp4tl1TyrYLbA8AUBrRGtNRCEFuEJdknsAx+ZZ5kFxLA2kW1AkaTWfjHwQKHuO3bjGwWHsFyslM+8eWCNK2QpTa9kpsGwAQmOiM6cjWsnjUzgniIkTON3CM1zLtL/CwktlF0Z5K02j3KKVT7dYLN7/t5lB4Xd/gP2ZbvALlcMjIqREac/o6grVNlsmu6x1YyKPtGr/1g2xbPi3Ajw1ANQi5he0TxEUIh2/gGK9lrEbKbysDALnGtmO3RXqYqM+OYOOzXbXUpNC6nsGFzLaMtfsEyhH1yCBXavvsftD5BdvmXNcvsFBu2zV+6wfZNgCgWjRm8KcowsF/RjtoFv2TAQgtCP7UwEwYY+9Z0WUh1gA0MhDsEMMBf/ByDwCggWADAEBEgGADAEBEgGADAEBEgGADAECIiVZPRwAAaGCi09MRAACADQQbAAAiAgQbAAAiAgQbAAAiAgQbAAAiAgQbAAAiAgQbAAAiAgQbAAAiAgQbAABCDHo6AgBAREBPRwAAiCAQbAAAiAgQbAAAiAgQbAAAiAgQbAAAiAgQbAAAiAgQbAAAiAgQbAAAiAgQbAAACDHo6QgAABEBPR0BACCCQLABACAiQLABACAiQLABACAiQLABACAiQLABACAiQLABACAiQLABACAiQLABACDEoKcjAABEBPR0BACACALBBgCAiADBBgCAiADBBgCAiADBBgCAiADBBgCAiADBBgCAiADBBgCAiADBBgCAEIOejgAAEBHQ0xEAACIIBBsAACICBBsAACICBBsAACICBBsAACICBBsAACICBBsAACICBBsAACICBBsAAEIMejoCAEBEQE9HAACIIBBsAACICBBsAACICBBsAACICBBsAACICBBsAACICBBsAACICBBsAACICBBsAAAIMejpCAAAEQE9HQEAIIJAsAEAICJAsAEAICJAsAEAICJAsAEAICJAsAEAICJAsAEAICJAsAEAICJAsAEAIMSgpyMAAEQE9HQEAIAIAsEGAICIAMEGAICIAMEGAICIAMEGAICIAMEGAICIAMEGAICI0LRz585ZNV0RduzYQcuWLVNz+bnqqqvUFAAAzA2+9KUvqan8bN26lZYsWaLmnGgd7f/KddR3xWqVW2fBBgCARiWoYN+w/qt25xm4RAAAIMSgpyMAAEQQCDYAAEQECDYAAEQECDYAAEQECDYAAEQECDYAAEQECDYAAEQECDYAAEQECDYAJdLU1FTxBIAbjOnoYIK6xQ+ldXBGzZdKpeoBYcFLUM00Oztb8eS1HTOBxiO0PR1nBls9LtJuIYUAVJfc666wIFcDr+2YyaudoHEIjWBPdDdRvJdoIGNeoBkaaEnTFhitoMK4Rc8URZ3CiFc73fsC5i7hEOyZQeofJmoZ2Eg9MZUniVHP5KQrD4DicYuaW/SijHtf3PsK5g7hEOzMNE2JP4nlfso8Q4Ot4uLrznWOsGXe1DooSmgf8oRVVl+wcplaX+X5+ZkdLhm5nhO3y6awv1pvF26demCeK7eozWXc+2oeBxBtwiHY8WZqEX+GR/1kTVjafV1cwCV8EzQqLPOuvh5RwmKqt42m+9TFOi7WmeqleFMn0UaVlxkg6o2TW/unRF4nbVQXeYYGSKxnFGKxdrhsVD14yRguTHGyzqWVGhnzOJjHB0SPcAh2rIc2DgjJHm6zLiYPS5qSHdRFw9RvCuTEqMjpoo6kmhe0DGRoSM/LdVyulthySog/aZdjnNebzBZSN4h+sjY3Qet6p1z1WG2e6l2Xx3pmlw7/UIbIaCKoAlqETHECuZjHB8IdPULz0jHWM2lfSJnmfvtiyroTktTBBvPImO2qmJDmdUd1xFBa/VM0nRHTM1soLf64XTax5VL68VK0TmSvkaxQg+DoY2YeRxBuQiPYJrZ4s0vDsKqTaweoZWqExnhWvqhsoYG1NbBdpY+9hZrjal5jijqoGW6R5gRKxzyOEO5wE0rBtlEujSmtiLF2SrVM0YhQ7JmxEZpqSVG70+itMEqk/YTZT8hBVXALNag8EO7wEZ2ejsoV0WIrYozaU0I6R9bRupEpx8vGSiNvCJQg6QXx8XvPbJGOEqsMqBoQ6toD4Q4P4evpONEtLgr3p28zNNjZK0Szi/qMD7Fj7SlqmRqm4Snny8Zycbw8nBmkTvmSca3yjydprXzB2KleQgpyyniBz/rKAUJdfyDc4SIcgp1cSwMtw9SmLgorxamXBijj/sIi1kP8AUelXza2iDr79bat7/eMr0Z4s5NkfcnnXwZUDj7GEOrwYAo3qB9NO3furOgvYseOHbRs2TI1VwWEZdsaH6FUBj0g5yJaECDU4QXnqDJs3bqVlixZouacaB3t/8p11HfFapUbdh+2B7V52QhqjXxqgVUdCfQ50ucM1I6ICbbqwJJqr9rLRlB7INTRxBRuUBsiJthJGhIXCPzGcwNtoUGoo40WbQh39YmcSwTMDbRQQ6znBvpcQrSrCwQb1BxY1XMXiHZ1gWCDmgKxnvtAtCsLxnQENYd/wBDrxkGLNoS7fEI7piOYm2ihhlg3FvqcQ7QrBwQbVBVY1QCiXTkg2KBqQKyBBqJdGSDYoCpArIEbiHb5QLBBxYFYAz8g2uUBwQYVBWINCgHRLh0INqgYEGsQFIh2aUCwQUWAWINigWgXDwQblA3EGpQKRLsw6OkIAAARAT0dQcWAdQ3KBVZ2cCDYoGQg1qBSQLSDAcEGJQGxBpUGol0YCDYAAEQECDYoGljXoFrAys4PBBsUBcQaVBuItj8QbAAAiAgQbBAYWNegVsDK9gaCDQAAIQY9HUHRwLoGtQZWtgV6OoKigFiDegHRdgLBBgCAiADBBgCAiADBBnmBOwTUG7hFskCwAQAgIkCwgS+wrkFYgJVtAcEGAICIAMEGAICIAMEGnsAdAsJGo7pF0NMRAAAiAno6AgBABIFggxzgDgFhpdG/FoFgg3Ax0S1/kDq1Ds6oBf7MDLY61smmVhqcmaHBVp7upglVPota1joopgAIPxBsEB5YrNvSNJCZlZbUbGaAqDceSLSJumic13GkSeqJxahnclwsHaZ+Vz0zg53UOyXWm+yhmMoDIMxAsEFIENZu/7DQ3T4hsior1kN9XURTI2NlWsBJWjvQQlO9ncLiVlnC3l7XO0UtA2vFUgCiAQQbhIQMTU8RtTTH1bxFskMqNo2V6bOI9WykgZYp6l1nOUZmBvtpuGWANtp3BwDCDwQbOGDfL7sTas7MFkqLP4nlXgI6RdMZNenLMLUZ/utcN0qMejYOUMtwPw1ODFJnL9HARrhCoghfn3yOGxEINggHmWkhy6UR65k0/NYijXfRVG+cmrpdrxmli0VY2W29NGW6XgCICBBsMPdIDpHQbGF0j+Z8GRJvblFTAEQD9HQE4SPeTJWUUkuY07TF9IzMsCtkirq6hJqza6RMvzgAtQA9HUH4iC2nhJrMpYVc7yJLYIYGO9kVMk5DQ2utF5Cd+P4aRAsINggJcWKjeHjU6cSYGB0Wep2i9qL8zTM0NsKfnBjrTayj3qkWGljLH/GpF5BTvdQJMxtECAg2CAlCRPmja9NVMTNI/Gl2S6rd/ppD92rMfgUyQd2uXoxWhxj+pFt/BSLKtA1Ty8BGxzfeG+W32ety/NwAhBUINggPySGaHU9Qb1x9nhfnb+8yNJn3cw62zJ2f9FmrzdKQ7BHD3c/bPL+5jvX0yR6QbeiaDiJC086dOyv60e2OHTto2bJlag4UjRCcHGr4XTQLXl2+wwagCGp+nVbhd7l161ZasmSJmnOidbT/K9dR3xWrVS4s7HDBFwVfBO7kdbEAAGpDiH6XEOywoC8KAEB4CNnvEi6RsGBcGE1N/0v+1czSF6hJpNrwBdEM3DhAeLF+H/x7qP5vwuu3Nzv7z9ZEmWIOl8gchS8YvnAAACGCxboGbhGzpyMs7LCQ725dw8cyvHQEUaBm12kVf5ewsAGQ8LfZwUaraUjkqD48Go+aB5EBgh0W+E7Nd2ydGD1dQ4uXrRa2XmrNRDd/Q+01jBejhvJyR98LTJgE3GoLH2Nn8hJQVTbwfhdbPprw8arZU2BIfpcaCHaY4AtAJ31B1OGiqAdyoAJ3sCbNzBhxT/OujrkzNkzLQEac2mxIWGs0NCG26MQTPvTvkFOdf5cQ7LBSpwuibiQ7qIumaMRjaJmZsRGxpIvmkF7nIGN6C9Xm+CZx20JO0pC4DmatLpsBKLY8KJo6/y4h2CAkJMkaDcw9fqMK5NTV4Rh70T1Sur+7g90EbTQspuSgBrI8u168XBMeLhn3KO6tvF2n+8LZFj+3TgBUfJNsPBWrjda++Y/wLt1JMt8sb+Dah6Y2PhpO/PchW2e2TBn7CMoCgg1Cg+f4jR7uEBYOHS9EuhTyjq7OViePmm66IYak+HeMq/VVGu/imCSGGMlR3Iepyy6XoZRrXBx3W2QdZbg1Yss5yKzXkGgqOFbO+JYTZAU0zAbIcpCzDyLJ0R2yBNkHvtl10kZVh3X8QO2BYIMc+EfJllTN8XCL5LpD9Gjn5UbeS1LSpTpOP7oexX1cBZFilGja5LYludZya6ixfotHDeSQ9nLme7mNJkbF00MX9XkGyPLaBzfB9oFvdvmDcNUGvi75+mxUINggROS6RTI8lLrpDvEZrNeyTH1eWubB4QowXQVBXnR6tSXvQAzlknt8ZLxwl7vIJpT7AMoBgg1ChdMtYj3uOwRHDtbrMQKNtEyDjK6usXyzDteKy1VQEDVw8HCb9v1ysvzlnhZyEFSd3qPHBzg+xVKNfQAVBWM6goLU2y0ihVc97jv0yE+Y/YTcD1l3ixDrydJHT1fuC4d/WKVS3QczW9jezfNFjOkW8To+xVKFfagWfD1yuxoNjOkIQoz12M9DhXk+7qvHdbf1ZwldgnwM0+Lx2Y6DIGWKQQ0S3DKw1tvFIUnSWvbXj4zRoDg+ecvWYx9AVYFgg9AhH/uH24hdyrmP+0qwejsdQ4nlFzqPTwaVpZ59gTchhxHLotYxX2SK7bS6yuS0RTAz2O3Ra7EA/DVH3BokuJBlG2tPyZeCvcMtlMo72KXHPnjsZ8X2AVQdCDbwhR8/6+cWYbwf97mTid0zkH2uliM6r9Alh8apizulSB9tN03EemhyvEsIlf42u5+aB6ytapJD+lM/vZ1p6nP5uXPaIlJ8pLngoMHZ7arUlrZ86UE6vcTaKcV+jACDE+fsQ9ModVRoH2oJt6kR3SFuEK0P5AU/FBfyu2aicXyLXFPm4nWIaH2g4tTNyg4DQpydnXEsd0J+HzOoNDAaskCwAciD03XRRumQdCABjQkEGwA/kkPSsjMTxBrUEwg2KAgLVcO6RUBdgTvECQQbBAKiDWoNxNoCPR0BACAioKcjKAlY2aBWwLr2BoINAAARAYINigJWNqg2sK79gWCDooFog2oBsc4PBBsAACICBBuUBKxsUGlgXRcGgg1KBqINKgXEOhgQbFAWEG1QLhDr4ECwAQAgxKCnI6gosLJBqcC6Lgx6OoKKA9EGxQKxLh4INqgYEG0QFIh1aUCwQUWBaINCQKxLB4INKg5EG/gBsS4PCDaoChBt4AZiXT4QbFA1INpAA7GuDBBsUFUg2gBiXTkg2KDqaNGGcDcW+pxDrCsHBBvUBP7RwtpuHLRQQ6zLBz0dQd2AaM99YFVXFvR0BHUFoj13gVhXFwg2qAtatCHccwN9LiHW1QWCDeoG/7hhbUcfLdQQ6+oDwQZ1R4s2hDta6HMGoa4dEGwQCrSFBuEOP6ZQQ6xrCwQbhApTuEH4gFDXFwg2CCVatCHc4UCfCwh1fYFgg9CiLTkId/0whRpiXX8g2CD0QLhrD4Q6PKCnI4gkEO7qA6EOH+jpCCKNW7gh3uVhHkcIdbiBYIPIosXFFG8QHLdIcwLhBoIN5gRu4YZ4e2MeH4h09IBggzmFFiGIdxbzOJjHB0QPCDaYs5jiZIoWp7mMe1/N4wCiDQQbNASmaHFyi1qUce+Le1/B3AGCDRoSt6i5RY9TGPFqp3tfwNwFgg2AwC16nLzE0UzVwGs7ZvJqJ2gcINgA+OAljmbyEtRyk9d2zAQaD/R0BKACeAlquQkAN+jpCAAAEQSCDQAAEQGCDQAAEQGCDQAAEQGCDQAAEQGCDQAAEQGCDQAAEQGCDQAAEQGCDQAAIQY9HQEAICKgpyMAAEQQCDYAAEQECDYAAEQECDYAAEQECDYAAEQECDYAAEQECDYAAISZBafaCYINAAAhZteuXXaCYAMAQESAYAMAQESAYAMAQESAYAMAQESAYAMAQESAYAMAQESAYAMAQESAYAMAQESAYAMAQESAYAMAQESAYAMAQESAYAMAQESAYAMAQESAYAMAQESAYAMAQESAYAMAQIhZf8MGOzXt3LlzVuVXhB07dtCyZcvUHAAAAC+2bt1KS5YsUXNO/HQUFjYAAESEqljYAAAACpPPwvai4oINAACgOsAlAgAAEQGCDQAAEaEhBfupp55SUwAAEB1gYQMAQESAYAMAQESAYAMAQEQIv2Bvu55WrbqetqlZAABoVBryO2x+6XjyySerOQAAiAa2hc1W7PU9i2nxYiv1bFIL2MJVeYsX95DOtjEtYFlWl9lG16+yprddv8qud/HiVXQ9F1brWdsU5RzzVpJt0PX7LWfkdrP5i1V7HNtVeQAAEFWyLpH7rqStF+8kYXHTzpvW0IavscBtop4VV9I5N1n5m699kC6xVVJxRpzOuW8rPSImt912C52zhuhWWeQR2krL6Ewuctkmq15Z9zl05XpVh73NQVrlmOdyug0GAdq4c/O1dD6XFSLefeU5dJPa7k3nWG0EAICokhXs86+ly6VqCs5cpkQvQw8a+We8ZzWdv+FWl5W9ii5e8yBlhLI+svUcuvjyZfQgKzave06czuAipgV8yQaiBzOWEJvbZLzaYBKgjTZ8I6ENdImy+FcNqpsCAABEEqL/P1ZXkwmGnC7CAAAAAElFTkSuQmCC;" vertex="1" parent="1">
          <mxGeometry x="290" y="30" width="264.28" height="750" as="geometry" />
        </mxCell>
        <mxCell id="JGCPPYY_YPL1akn_zZar-2" value="" style="rounded=0;whiteSpace=wrap;html=1;fillColor=none;strokeColor=#FF0000;strokeWidth=4;" vertex="1" parent="1">
          <mxGeometry x="300" y="440" width="250" height="60" as="geometry" />
        </mxCell>
        <mxCell id="JGCPPYY_YPL1akn_zZar-3" value="This example shows my newly-compiled Library &quot;ExampleLibrary&quot;, which contains a single part called &quot;voltage-divider&quot;.&lt;div&gt;&lt;br&gt;&lt;/div&gt;&lt;div&gt;This library is set up as a &quot;User Library&quot;.&lt;/div&gt;" style="shape=callout;whiteSpace=wrap;html=1;perimeter=calloutPerimeter;fillColor=#f8cecc;strokeColor=#b85450;direction=south;" vertex="1" parent="1">
          <mxGeometry x="550" y="410" width="245" height="115" as="geometry" />
        </mxCell>
        <mxCell id="JGCPPYY_YPL1akn_zZar-4" value="" style="rounded=0;whiteSpace=wrap;html=1;strokeWidth=4;fillColor=none;strokeColor=#3399FF;" vertex="1" parent="1">
          <mxGeometry x="300" y="510" width="250" height="260" as="geometry" />
        </mxCell>
        <mxCell id="JGCPPYY_YPL1akn_zZar-5" value="This example shows my newly-compiled Library &lt;font face=&quot;Courier New&quot;&gt;&lt;b&gt;ExampleLibrary&lt;/b&gt;&lt;/font&gt;, which contains a single part called &lt;font face=&quot;Courier New&quot;&gt;&lt;b&gt;voltage-divider&lt;/b&gt;&lt;/font&gt;.&lt;div&gt;&lt;br&gt;&lt;/div&gt;&lt;div&gt;This library is set up as a &quot;User Library&quot;, meaning it is available in all QUCS-S Projects opened on my PC.&lt;/div&gt;" style="shape=callout;whiteSpace=wrap;html=1;perimeter=calloutPerimeter;fillColor=#dae8fc;strokeColor=#6c8ebf;direction=south;" vertex="1" parent="1">
          <mxGeometry x="550" y="582.5" width="245" height="147.5" as="geometry" />
        </mxCell>
      </root>
    </mxGraphModel>
  </diagram>
</mxfile>
